<?xml version="1.0" standalone="no"?>
<!DOCTYPE svg PUBLIC "-//W3C//DTD SVG 20010904//EN"
 "http://www.w3.org/TR/2001/REC-SVG-20010904/DTD/svg10.dtd">
<svg version="1.0" xmlns="http://www.w3.org/2000/svg"
 width="1150.000000pt" height="1100.000000pt" viewBox="0 0 1150.000000 1100.000000"
 preserveAspectRatio="xMidYMid meet">

<g transform="translate(0.000000,1100.000000) scale(0.100000,-0.100000)"
fill="#000000" stroke="none">
<path d="M1070 10030 c-130 -14 -223 -61 -306 -153 -86 -95 -126 -207 -125
-345 1 -198 98 -360 266 -443 109 -53 163 -59 567 -59 340 0 367 -1 372 -17 7
-24 220 -1294 606 -3613 176 -1059 327 -1956 336 -1995 37 -159 125 -290 238
-355 28 -16 87 -39 131 -52 l80 -23 2820 0 c2675 0 2824 1 2896 18 225 53 379
248 379 481 0 248 -154 442 -389 492 -56 11 -470 14 -2648 14 l-2581 0 -6 27
c-12 59 -76 452 -76 467 0 15 258 16 2871 16 2602 0 2877 2 2942 16 194 44
331 177 382 371 27 102 515 3563 515 3649 0 145 -45 251 -149 355 -66 66 -134
106 -222 131 -35 10 -777 13 -3571 15 l-3527 3 -10 53 c-6 28 -30 169 -55 313
-25 143 -54 285 -65 315 -53 141 -169 258 -299 301 -66 22 -75 22 -682 24
-338 1 -649 -2 -690 -6z m5738 -2512 l2 -498 -750 0 -750 0 0 500 0 500 748
-2 747 -3 3 -497z m-2018 -3 l0 -495 -793 0 -793 0 -82 488 c-45 268 -82 490
-82 495 0 4 394 7 875 7 l875 0 0 -495z m4396 0 l-71 -495 -892 0 -893 0 0
495 0 495 963 0 963 0 -70 -495z m-4406 -1515 l0 -500 -662 2 -662 3 -78 465
c-42 256 -80 480 -83 498 l-6 32 746 0 745 0 0 -500z m2030 5 l0 -495 -750 0
-750 0 0 495 0 495 750 0 750 0 0 -495z m2230 492 c0 -32 -142 -983 -148 -989
-5 -5 -359 -7 -788 -6 l-779 3 -3 498 -2 497 860 0 c473 0 860 -1 860 -3z"/>
<path d="M3911 2459 c-238 -42 -449 -203 -556 -424 -109 -226 -96 -487 36
-713 47 -80 180 -210 264 -260 39 -22 106 -53 150 -69 74 -26 91 -28 230 -28
170 0 219 11 345 76 148 76 264 195 335 344 47 96 65 172 72 290 13 224 -61
411 -227 576 -71 71 -103 94 -181 133 -51 25 -121 53 -154 62 -74 19 -241 26
-314 13z"/>
<path d="M8485 2464 c-11 -2 -44 -9 -73 -15 -123 -25 -268 -105 -365 -202
-340 -340 -284 -897 117 -1161 138 -91 253 -126 416 -126 156 0 275 34 403
116 87 57 149 114 203 190 187 262 193 610 15 872 -134 198 -353 319 -590 327
-58 2 -115 2 -126 -1z"/>
</g>
</svg>
