<?xml version="1.0" standalone="no"?>
<!DOCTYPE svg PUBLIC "-//W3C//DTD SVG 20010904//EN"
 "http://www.w3.org/TR/2001/REC-SVG-20010904/DTD/svg10.dtd">
<svg version="1.0" xmlns="http://www.w3.org/2000/svg"
 width="3898.000000pt" height="3898.000000pt" viewBox="0 0 3898.000000 3898.000000"
 preserveAspectRatio="xMidYMid meet">

<g transform="translate(0.000000,3898.000000) scale(0.100000,-0.100000)"
fill="#000000" stroke="none">
<path d="M19892 36733 c-81 -104 -160 -359 -178 -580 -4 -46 -8 -83 -10 -83
-2 0 -21 7 -41 15 -21 8 -95 35 -165 59 l-126 46 -104 -49 c-186 -88 -419
-199 -665 -319 l-241 -117 -62 -175 c-34 -96 -121 -339 -192 -540 -72 -201
-154 -432 -183 -515 -233 -662 -490 -1380 -510 -1425 -24 -55 -51 -128 -85
-230 -18 -54 -109 -312 -134 -380 -13 -34 -15 -35 -62 -32 -46 2 -234 32 -334
52 -25 5 -76 14 -115 20 -38 6 -99 18 -135 25 -36 8 -94 17 -130 20 -36 4 -80
11 -99 17 -19 6 -71 16 -115 23 -45 7 -175 29 -291 50 -278 48 -310 53 -313
50 -1 -1 11 -328 28 -726 18 -398 31 -743 31 -766 0 -46 3 -48 109 -68 70 -13
68 -11 74 -88 4 -40 29 -569 56 -1177 27 -608 52 -1150 56 -1205 l6 -100 -101
-73 -101 -74 -293 -98 c-160 -54 -429 -149 -597 -210 -168 -62 -321 -117 -340
-122 -32 -9 -59 0 -315 100 -698 275 -1238 454 -1435 477 -85 10 -202 -5
-1103 -140 -189 -29 -321 -44 -327 -39 -11 12 -55 261 -75 431 -45 382 -39
704 26 1268 22 198 80 424 219 851 201 618 260 908 260 1269 0 303 -35 476
-139 682 -227 452 -647 778 -1181 916 -174 45 -318 60 -532 55 -283 -8 -433
-42 -720 -164 -500 -212 -915 -482 -1323 -861 -127 -118 -322 -324 -407 -430
-18 -23 -36 -41 -40 -40 -4 1 -55 61 -113 132 -416 509 -813 845 -1260 1065
-194 96 -316 142 -520 196 -71 18 -164 43 -205 54 -523 141 -1098 -143 -1432
-709 -99 -168 -173 -371 -203 -556 -29 -174 -16 -418 30 -565 7 -25 17 -65 20
-90 14 -96 78 -369 121 -512 92 -307 196 -571 469 -1188 174 -393 263 -615
381 -953 103 -293 213 -733 278 -1107 21 -122 22 -136 8 -147 -17 -14 -66 -18
-58 -5 2 4 -37 9 -87 10 -51 1 -123 4 -162 6 -381 21 -672 28 -975 22 -374 -7
-491 -15 -498 -34 -2 -7 -8 -12 -13 -12 -6 0 -8 4 -5 9 10 15 -48 20 -81 6
-20 -9 -35 -10 -38 -4 -4 5 -9 7 -13 5 -12 -7 -84 -19 -191 -31 -30 -3 -59 -9
-65 -12 -12 -8 -25 -11 -85 -19 -28 -4 -39 -9 -30 -15 9 -5 3 -7 -16 -7 -46 1
-147 -31 -139 -44 4 -7 3 -8 -5 -4 -6 4 -19 2 -28 -6 -9 -7 -17 -12 -17 -10
-3 11 -142 -56 -159 -77 -10 -12 -9 -13 3 -6 9 5 12 5 7 -1 -5 -5 -13 -10 -18
-10 -5 -1 -10 -2 -11 -4 -2 -1 -10 -3 -19 -5 -23 -4 -83 -64 -102 -102 -14
-27 -16 -65 -12 -283 2 -138 6 -259 9 -268 9 -32 18 -127 21 -217 3 -120 14
-300 22 -350 7 -44 11 -91 16 -180 6 -120 19 -270 22 -282 3 -7 7 -52 10 -100
4 -49 8 -94 10 -101 3 -7 7 -63 11 -125 3 -61 11 -120 16 -130 5 -9 6 -22 3
-27 -3 -5 -1 -48 4 -97 5 -48 12 -119 16 -158 3 -38 7 -86 10 -105 2 -19 7
-60 10 -90 2 -30 7 -82 10 -115 5 -56 20 -196 30 -290 3 -22 10 -92 16 -155 5
-63 21 -216 35 -340 14 -124 27 -247 30 -275 2 -27 11 -115 19 -194 8 -79 15
-153 15 -165 0 -17 2 -18 10 -6 7 10 8 4 4 -20 -6 -36 121 -1194 227 -2065 33
-275 60 -507 61 -515 1 -24 112 -932 188 -1541 38 -305 70 -571 71 -590 1 -19
-24 -140 -55 -269 -676 -2793 -1267 -6790 -1442 -9750 -22 -377 -25 -924 -4
-964 29 -55 444 -295 1985 -1146 77 -42 309 -169 515 -282 206 -113 659 -361
1005 -551 523 -286 1600 -885 2620 -1457 246 -138 1076 -602 1625 -908 2065
-1152 2243 -1253 2294 -1298 67 -59 145 -95 204 -96 34 0 110 23 277 82 127
45 455 162 730 260 275 98 664 237 865 308 201 72 624 222 940 335 316 113
773 276 1015 362 242 86 604 215 805 287 201 71 649 231 996 354 l631 225 399
-146 c219 -81 441 -162 493 -181 51 -20 135 -50 185 -69 196 -71 730 -267 896
-328 96 -36 294 -108 440 -162 146 -53 393 -144 550 -202 157 -58 443 -163
635 -233 193 -71 456 -167 585 -215 129 -48 307 -113 395 -145 88 -32 191 -70
228 -84 l68 -26 -6 143 c-12 297 -15 377 -20 557 -4 102 -10 280 -16 395 -5
116 -9 244 -8 285 l0 75 24 -100 c101 -434 339 -774 648 -926 37 -18 67 -36
67 -39 0 -3 -148 -93 -329 -200 -232 -138 -325 -197 -315 -203 10 -6 32 1 62
19 59 35 1047 622 2412 1434 228 136 573 341 765 455 193 114 537 319 765 455
228 136 573 341 765 455 193 114 548 326 790 470 242 144 503 299 580 345 247
147 2502 1488 2740 1630 127 75 313 187 415 247 443 263 2474 1471 2560 1523
52 31 253 151 445 265 885 525 1092 649 1123 667 23 14 32 27 32 46 0 15 -5
131 -10 257 -14 337 -18 438 -55 1470 -19 517 -37 1001 -40 1075 -3 74 -23
626 -45 1225 -21 600 -41 1131 -44 1181 -6 105 2 125 52 126 18 1 32 5 32 10
0 4 3 7 8 7 4 -1 9 -1 12 1 3 1 16 4 30 6 45 8 45 2 37 269 -3 99 -9 304 -12
455 -7 295 -10 348 -19 357 -3 3 -27 -2 -53 -11 -27 -10 -79 -29 -118 -43 -38
-14 -84 -31 -102 -39 -17 -8 -38 -14 -47 -14 -9 0 -16 -7 -16 -15 0 -8 -8 -15
-17 -15 -15 0 -16 2 -3 10 30 19 -1 9 -63 -20 -35 -16 -75 -30 -88 -30 -13 0
-38 -8 -54 -18 -17 -11 -47 -22 -68 -26 -21 -4 -35 -10 -33 -14 3 -5 -5 -9
-16 -9 -32 -3 -118 -36 -118 -46 0 -4 -4 -6 -9 -3 -9 6 -63 -12 -171 -54 -30
-12 -72 -26 -92 -32 -22 -6 -35 -15 -31 -21 3 -6 1 -7 -5 -3 -11 7 -124 -28
-147 -45 -5 -4 -33 -14 -62 -22 -28 -9 -61 -21 -73 -27 -12 -6 -34 -14 -48
-16 -15 -3 -28 -9 -30 -15 -2 -5 -14 -9 -26 -9 -12 0 -32 -7 -45 -17 -13 -9
-34 -17 -47 -19 -34 -3 -188 -57 -192 -66 -2 -5 -8 -6 -13 -2 -5 3 -9 0 -9 -5
0 -6 -13 -11 -30 -11 -16 0 -30 -4 -30 -8 0 -4 -10 -8 -22 -9 -11 -1 -24 -6
-27 -11 -3 -5 -13 -9 -21 -9 -8 0 -67 -21 -132 -46 -64 -26 -126 -47 -138 -47
-11 0 -19 -4 -16 -9 7 -11 -22 -23 -35 -15 -5 3 -15 2 -21 -3 -12 -7 -50 -21
-223 -83 -33 -12 -67 -24 -75 -27 -8 -4 -17 -7 -20 -8 -32 -8 -58 -20 -72 -32
-9 -8 -22 -13 -30 -12 -7 1 -20 0 -28 -3 -8 -3 -51 -18 -95 -33 -44 -15 -84
-32 -89 -36 -6 -5 -19 -9 -30 -9 -12 0 -34 -7 -51 -16 -16 -9 -39 -18 -50 -20
-11 -2 -21 -8 -23 -13 -2 -6 -10 -7 -19 -4 -8 3 -19 0 -24 -8 -4 -8 -19 -15
-33 -16 -14 -1 -40 -8 -58 -17 -18 -8 -49 -18 -68 -22 -19 -3 -57 -17 -84 -30
-28 -13 -55 -24 -60 -24 -6 0 -23 -6 -37 -14 -14 -7 -43 -16 -64 -20 -25 -5
-34 -10 -26 -15 8 -5 2 -8 -16 -8 -30 0 -126 -33 -131 -45 -2 -5 -10 -8 -18
-8 -19 0 -164 -50 -189 -66 -11 -6 -37 -15 -57 -18 -21 -4 -38 -10 -38 -14 0
-4 -8 -8 -17 -9 -10 -1 -49 -13 -88 -28 -38 -14 -90 -33 -115 -42 -98 -33
-237 -85 -267 -99 -17 -8 -41 -14 -53 -14 -13 0 -19 -4 -14 -12 5 -7 3 -8 -6
-3 -7 4 -15 4 -19 -1 -3 -5 -66 -29 -140 -54 -74 -25 -146 -54 -160 -65 -14
-11 -22 -14 -17 -7 4 6 3 12 -3 12 -5 0 -12 -4 -15 -9 -3 -5 -21 -12 -40 -15
-19 -4 -39 -12 -45 -20 -6 -7 -25 -13 -43 -14 -18 0 -34 -6 -36 -11 -2 -6 -8
-9 -13 -5 -5 3 -9 0 -9 -6 0 -6 -4 -8 -10 -5 -5 3 -10 2 -10 -4 0 -6 -6 -8
-14 -5 -7 3 -39 -6 -71 -20 -32 -15 -64 -26 -71 -26 -8 0 -22 -4 -32 -9 -34
-17 -68 -30 -109 -42 -24 -7 -43 -15 -43 -19 0 -4 -25 -12 -55 -19 -30 -7 -55
-16 -55 -19 0 -4 -19 -12 -42 -19 -58 -15 -119 -39 -114 -44 2 -2 -5 -5 -17
-5 -20 -2 -123 -37 -317 -108 -41 -16 -110 -40 -152 -55 -43 -15 -75 -31 -71
-34 3 -4 -8 -7 -25 -7 -29 0 -31 -2 -27 -27 3 -16 10 -91 15 -168 6 -77 13
-158 15 -180 7 -72 17 -219 17 -250 0 -16 4 -68 9 -115 10 -84 17 -186 22
-307 1 -33 5 -59 10 -56 4 2 7 -2 7 -9 0 -8 3 -9 8 -3 4 6 21 12 37 14 17 1
32 7 35 11 3 4 31 16 63 26 39 12 53 21 45 27 -8 5 -5 6 10 2 13 -4 29 -2 36
4 9 8 31 2 81 -23 158 -80 353 -69 519 28 90 53 255 227 290 306 13 30 26 41
40 33 5 -4 6 -1 1 7 -6 10 -4 12 8 7 9 -3 49 7 89 23 40 17 79 30 86 30 6 0
12 5 12 11 0 5 5 7 10 4 6 -3 10 -1 10 5 0 6 6 10 13 9 22 -4 96 24 90 34 -3
6 -1 7 6 3 6 -4 36 2 66 13 l55 21 -6 -28 c-23 -97 -94 -286 -149 -397 -77
-157 -158 -275 -266 -390 -102 -107 -189 -173 -304 -231 -120 -60 -209 -84
-335 -91 -170 -9 -318 29 -469 122 -56 35 -71 40 -71 27 0 -9 9 -132 20 -272
11 -140 20 -261 20 -267 0 -8 10 -4 26 10 14 12 53 37 87 56 56 31 71 35 157
38 81 3 103 0 148 -19 131 -56 232 -188 283 -368 6 -19 14 -46 18 -60 15 -49
13 -273 -3 -365 -16 -90 -61 -223 -92 -270 -9 -14 -12 -25 -8 -25 5 0 4 -4 -1
-8 -6 -4 -23 -26 -38 -49 -27 -38 -169 -181 -175 -175 -1 1 -15 -4 -30 -12
-62 -32 -144 -49 -209 -42 l-63 7 4 -123 c2 -68 8 -158 12 -202 l7 -78 45 5
c211 24 416 -126 511 -373 91 -235 93 -521 5 -788 -88 -269 -259 -473 -464
-554 -44 -17 -76 -22 -155 -22 -94 0 -105 2 -175 35 -355 168 -470 772 -239
1258 27 57 48 106 46 107 -2 2 -79 -2 -172 -9 l-169 -12 -28 -84 c-187 -567
-92 -1190 232 -1510 133 -132 258 -190 426 -199 123 -6 218 13 322 63 197 94
336 231 497 490 l19 30 27 -143 28 -143 -46 -65 c-37 -53 -168 -202 -208 -236
-66 -57 -167 -129 -213 -153 -31 -16 -59 -32 -62 -35 -3 -3 -9 -6 -15 -7 -5
-1 -39 -13 -75 -27 -96 -35 -204 -50 -323 -43 -142 9 -246 42 -344 109 -24 16
-43 26 -43 23 0 -3 -9 3 -19 13 -45 41 -181 175 -181 178 0 2 -24 38 -53 81
-29 43 -66 105 -83 138 -16 33 -33 63 -39 67 -5 4 -7 8 -3 8 4 0 -3 21 -14 48
-29 64 -66 196 -91 322 -17 89 -20 144 -21 370 -1 288 12 399 69 593 29 101
28 97 14 97 -5 0 -8 -3 -6 -7 3 -5 -41 -8 -98 -8 -57 0 -106 -2 -108 -5 -3 -3
-10 -93 -16 -200 -6 -107 -18 -240 -26 -295 -75 -494 -260 -949 -538 -1323
-54 -71 -65 -81 -86 -77 -13 3 -74 6 -135 6 -105 0 -207 -14 -304 -42 -23 -6
-45 -10 -47 -7 -2 2 0 33 5 68 6 36 13 130 17 210 l6 145 74 75 c275 277 454
690 493 1140 12 141 12 231 1 248 -7 11 -94 7 -502 -24 -272 -21 -529 -40
-571 -43 l-78 -6 31 -32 c16 -18 26 -33 22 -33 -4 0 -3 -4 2 -8 6 -4 16 -19
24 -34 8 -15 21 -36 30 -46 9 -10 23 -31 32 -48 52 -98 71 -137 105 -209 21
-44 37 -84 36 -89 -2 -4 3 -14 9 -22 6 -8 9 -14 6 -14 -3 0 8 -39 24 -87 37
-110 73 -288 95 -463 13 -107 15 -182 10 -360 -3 -124 -8 -238 -10 -255 -17
-128 -30 -195 -38 -195 -5 0 -6 -5 -2 -12 4 -6 3 -9 -2 -6 -10 6 -54 -18 -128
-69 -26 -18 -51 -33 -56 -33 -4 0 -10 -3 -12 -7 -1 -5 -21 -24 -43 -42 -22
-19 -39 -38 -38 -41 1 -3 -6 -6 -15 -7 -16 -1 -15 9 9 106 40 162 60 317 66
507 18 535 -145 1010 -450 1315 -243 243 -574 351 -902 295 -687 -117 -1273
-861 -1390 -1761 -18 -142 -21 -443 -5 -570 80 -654 432 -1137 919 -1261 351
-90 747 20 1070 295 39 33 52 40 48 26 -18 -60 -37 -133 -41 -155 -2 -14 -11
-54 -19 -90 -8 -36 -18 -90 -22 -120 -10 -89 -16 -110 -30 -110 -7 0 -19 -7
-26 -16 -7 -9 -22 -20 -34 -25 -11 -5 -40 -21 -65 -35 -62 -35 -221 -102 -306
-130 -188 -60 -479 -70 -664 -24 -47 12 -89 23 -95 24 -5 1 -20 7 -32 14 -12
7 -28 12 -35 12 -31 0 -251 123 -290 162 -10 10 -24 16 -30 12 -7 -4 -8 -3 -4
4 4 7 3 12 -2 12 -4 0 -37 28 -73 63 -66 65 -198 207 -192 207 6 0 -51 75 -59
78 -5 2 -8 8 -8 14 0 6 -13 30 -30 55 -16 24 -30 49 -30 54 0 6 -5 7 -12 3 -6
-4 -8 -3 -5 3 3 5 -9 42 -28 81 -19 39 -35 73 -35 75 0 3 -10 26 -22 53 -12
27 -23 51 -23 54 -3 19 -29 87 -38 98 -5 6 -7 12 -4 12 3 0 -1 21 -9 48 -23
74 -61 257 -75 367 -15 108 -19 518 -7 645 11 116 45 299 83 444 32 124 87
300 105 335 4 9 23 52 41 96 18 44 43 100 56 124 12 24 20 48 16 55 -3 6 -2 8
2 3 7 -6 81 118 88 147 1 5 10 18 21 30 24 27 106 154 106 164 0 4 8 15 18 24
9 9 22 23 27 30 40 52 84 107 105 132 55 63 209 211 280 268 41 33 77 65 78
69 2 5 9 9 14 9 20 0 108 62 102 72 -3 5 0 8 7 7 24 -5 60 12 53 24 -4 7 -4 9
1 5 4 -4 37 8 74 26 36 18 96 44 134 57 37 13 67 28 67 32 0 4 4 6 8 3 5 -3
37 3 73 14 136 40 384 55 534 31 73 -11 203 -48 267 -75 42 -18 42 -17 58
-255 5 -79 11 -145 13 -148 2 -2 220 13 483 32 835 62 1118 82 1999 146 473
34 863 65 866 68 4 3 -17 335 -47 736 -29 402 -69 951 -89 1220 -20 270 -51
702 -70 960 -19 259 -55 751 -80 1095 -25 344 -50 688 -56 765 -8 117 -13 143
-29 155 -10 8 -239 206 -510 440 l-491 425 -67 6 -67 5 68 4 c37 2 73 4 81 4
19 1 1036 -882 1045 -908 5 -12 13 -97 19 -190 7 -93 13 -171 15 -173 2 -1
750 261 1663 583 912 322 1740 614 1839 649 493 173 716 253 722 259 7 7 3 90
-62 1216 -52 910 -122 2162 -141 2515 -9 171 -21 311 -25 313 -13 5 18 33 33
31 26 -3 39 1 33 11 -3 6 -2 10 4 10 5 0 11 -6 14 -12 3 -9 11 -6 26 9 21 22
22 31 20 221 0 113 -5 205 -11 213 -7 10 -8 6 -4 -13 7 -32 -2 -78 -15 -78 -6
0 -5 8 1 20 5 10 9 32 8 47 -1 15 -1 42 0 58 2 24 4 27 13 15 8 -11 9 -7 4 17
-3 17 -7 74 -9 127 -1 53 -5 99 -9 102 -6 7 -4 35 9 121 l5 31 -38 -10 c-21
-5 -51 -13 -68 -18 -16 -5 -50 -15 -75 -22 -25 -7 -51 -17 -57 -21 -7 -5 -18
-5 -23 -2 -6 4 -23 -1 -38 -11 -15 -10 -41 -19 -58 -19 -32 -2 -94 -25 -94
-36 0 -4 -28 -10 -62 -13 -86 -9 -149 -26 -141 -39 3 -6 1 -7 -5 -3 -11 7
-153 -22 -162 -33 -15 -19 -58 -32 -114 -36 -34 -2 -73 -8 -87 -13 -13 -6 -57
-20 -96 -33 -40 -13 -73 -26 -73 -30 0 -3 -11 -4 -24 -2 -14 3 -53 -4 -88 -15
-35 -11 -92 -28 -128 -37 -36 -10 -96 -27 -135 -38 -38 -12 -74 -21 -80 -22
-20 -2 -100 -26 -117 -35 -9 -5 -40 -12 -68 -16 -35 -5 -60 -15 -76 -31 -19
-19 -31 -23 -53 -18 -16 3 -49 1 -73 -6 -23 -7 -47 -13 -53 -14 -26 -3 -95
-29 -95 -36 0 -5 -6 -6 -13 -3 -8 3 -34 -2 -58 -10 -24 -9 -54 -16 -66 -16
-12 0 -28 -6 -35 -12 -7 -7 -24 -14 -38 -14 -30 -2 -80 -13 -92 -20 -5 -3 -21
-8 -36 -10 -57 -10 -102 -25 -102 -34 0 -6 -18 -10 -40 -10 -22 0 -48 -4 -58
-10 -9 -5 -43 -14 -74 -20 -32 -6 -60 -16 -63 -21 -4 -5 -17 -9 -31 -9 -28 0
-168 -36 -194 -50 -10 -5 -19 -7 -22 -5 -2 3 -33 -6 -68 -20 -34 -13 -66 -22
-71 -19 -5 3 -31 -3 -57 -12 -39 -14 -48 -22 -44 -36 2 -10 -1 -18 -7 -18 -6
0 -11 5 -11 10 0 24 -149 -3 -158 -29 -2 -5 -11 -7 -21 -4 -9 2 -51 -5 -92
-16 -136 -37 -149 -42 -149 -66 0 -29 10 -37 27 -24 18 15 17 1 -1 -17 -23
-22 -66 -18 -66 6 0 11 5 20 10 20 6 0 10 4 10 9 0 5 -17 8 -37 6 -45 -3 -176
-35 -183 -44 -3 -4 -50 -16 -104 -29 -55 -12 -102 -25 -105 -30 -3 -4 -19 -9
-34 -10 -16 -1 -34 -5 -40 -9 -7 -4 -23 -9 -37 -11 -14 -1 -52 -11 -85 -21
-33 -11 -82 -24 -110 -31 -27 -6 -59 -16 -70 -20 -32 -13 -79 -23 -97 -21 -10
1 -32 -4 -50 -13 -45 -20 -202 -65 -267 -77 -29 -5 -66 -16 -82 -25 -16 -8
-34 -12 -40 -9 -5 4 -20 0 -32 -8 -12 -8 -38 -17 -57 -20 -19 -4 -44 -8 -55
-10 -11 -2 -49 -16 -85 -30 -36 -14 -86 -29 -112 -32 -26 -4 -49 -13 -52 -21
-4 -9 -21 -14 -51 -14 -24 0 -95 -13 -157 -30 -329 -87 -369 -100 -362 -112 5
-7 0 -9 -14 -6 -14 4 -20 2 -16 -4 5 -7 -2 -9 -20 -4 -16 4 -52 0 -84 -9 -112
-30 -192 -60 -192 -70 0 -5 -4 -5 -8 2 -6 9 -26 6 -82 -14 -41 -14 -86 -27
-100 -28 -14 -1 -32 -3 -41 -4 -9 0 -26 -10 -39 -21 -13 -11 -36 -19 -54 -19
-17 1 -38 -1 -46 -3 -8 -2 -31 -8 -50 -12 -58 -13 -140 -42 -135 -48 8 -8 -13
-58 -25 -58 -5 0 -10 11 -10 25 0 19 -5 25 -21 25 -30 0 -99 -22 -94 -29 2 -4
-11 -7 -30 -7 -18 0 -57 -8 -86 -17 -30 -9 -94 -28 -144 -42 -49 -14 -97 -29
-105 -32 -8 -3 -26 -8 -40 -10 -14 -2 -34 -8 -45 -12 -17 -8 -119 -34 -175
-45 -54 -10 -109 -30 -104 -37 3 -5 2 -9 -3 -10 -93 -8 -144 -18 -161 -32 -7
-6 -30 -12 -50 -14 -20 -2 -44 -11 -53 -19 -9 -8 -42 -16 -75 -18 -32 -2 -72
-10 -89 -16 -16 -7 -39 -13 -50 -15 -11 -2 -39 -10 -62 -19 -22 -8 -52 -17
-65 -20 -27 -5 -76 -16 -101 -23 -9 -2 -15 -8 -12 -13 3 -4 -4 -6 -15 -3 -12
3 -20 0 -20 -7 0 -7 -8 -9 -20 -5 -11 4 -53 -3 -93 -15 -69 -20 -91 -26 -234
-66 -34 -10 -61 -22 -60 -28 1 -6 -9 -10 -23 -9 -34 2 -120 -18 -145 -34 -11
-7 -34 -13 -52 -13 -18 0 -50 -6 -70 -14 -21 -8 -64 -19 -96 -26 -31 -6 -55
-15 -52 -20 3 -5 -8 -8 -24 -8 -16 1 -42 -4 -58 -9 -15 -6 -53 -16 -83 -23
-30 -7 -64 -20 -74 -29 -16 -13 -18 -13 -11 -1 8 13 7 13 -8 1 -9 -7 -17 -20
-17 -27 0 -8 -4 -14 -10 -14 -5 0 -10 5 -10 10 0 16 -65 12 -127 -9 -108 -35
-169 -51 -216 -57 -32 -5 -47 -11 -47 -21 0 -9 -6 -13 -15 -9 -8 3 -15 2 -15
-3 0 -5 -26 -10 -58 -13 -31 -2 -78 -14 -103 -26 -25 -12 -55 -22 -66 -22 -11
0 -54 -9 -94 -19 -41 -11 -103 -27 -139 -37 -123 -32 -145 -40 -143 -52 3 -14
-3 -15 -25 -3 -12 6 -37 3 -77 -11 -33 -11 -69 -21 -80 -23 -11 -2 -69 -17
-130 -35 l-110 -32 -170 37 c-93 20 -222 48 -285 61 -63 14 -174 38 -245 54
-72 16 -173 38 -225 49 -52 11 -252 54 -445 96 -192 42 -393 85 -445 96 -52
11 -165 35 -250 54 -85 19 -499 109 -920 200 -421 91 -877 190 -1015 220 -813
177 -1043 227 -1068 232 -34 7 -33 2 -47 253 -6 113 -20 331 -31 485 -10 154
-28 413 -39 575 -11 162 -22 309 -25 325 -3 17 -21 217 -40 445 -34 398 -68
776 -100 1109 -9 86 -22 228 -30 316 -9 88 -22 219 -31 290 -8 72 -21 193 -29
270 -8 77 -24 210 -35 295 -11 85 -43 340 -70 565 -92 762 -294 2187 -318
2247 -6 14 -42 -17 -180 -149 l-173 -166 -817 153 c-1656 309 -1913 358 -1919
364 -4 3 -4 8 -1 11 5 5 82 -9 673 -119 1459 -272 2020 -376 2036 -376 11 0
139 118 316 293 164 160 496 485 738 722 647 632 845 829 843 837 -9 23 -362
377 -381 381 -15 3 -11 5 12 6 32 1 45 -11 181 -151 80 -84 165 -174 188 -199
l42 -46 -245 -243 c-134 -134 -241 -248 -238 -253 3 -6 1 -7 -4 -4 -13 8 -427
-393 -416 -403 4 -4 105 -34 223 -67 118 -34 523 -150 900 -258 377 -108 797
-229 934 -268 l248 -71 222 76 c225 78 578 200 741 257 49 17 95 31 102 31 8
0 13 -14 13 -39 l0 -39 88 -26 c48 -14 103 -31 122 -36 44 -12 237 -69 270
-79 14 -5 59 -18 100 -30 41 -11 137 -39 212 -61 75 -22 146 -40 157 -40 11 0
22 -4 26 -9 3 -5 20 -12 38 -16 17 -3 66 -17 107 -31 41 -13 129 -39 195 -58
269 -76 441 -127 610 -177 135 -41 346 -103 370 -109 39 -10 306 -87 370 -107
28 -8 97 -28 155 -44 97 -27 141 -40 385 -115 50 -15 97 -28 105 -29 17 -2
170 -47 242 -71 26 -9 53 -12 59 -8 8 4 9 3 5 -4 -4 -7 -1 -12 7 -12 8 0 49
-11 92 -25 l77 -24 192 70 c105 38 238 87 296 109 112 41 1695 615 1995 723
99 36 198 72 220 81 22 8 252 92 510 185 259 93 477 172 486 176 12 5 133
-134 495 -572 554 -670 607 -733 614 -733 3 0 66 50 140 111 74 60 162 132
195 159 33 27 249 203 480 392 231 189 542 443 690 564 720 587 1373 1121
1398 1144 l29 25 -484 475 c-462 453 -695 683 -1308 1287 -151 149 -291 285
-310 303 -33 31 -241 236 -947 933 l-282 277 -668 71 -668 71 -210 -111 c-140
-74 -217 -109 -230 -105 -15 4 -17 3 -6 -4 11 -8 2 -16 -38 -37 -29 -14 -56
-23 -59 -19 -4 4 -1 9 6 11 6 3 10 9 6 14 -3 5 0 8 8 7 7 -2 12 5 12 14 -1 10
2 15 7 12 11 -7 79 17 79 28 0 4 8 8 18 9 16 0 16 1 -1 7 -16 7 -16 9 4 26 18
15 21 16 16 2 -4 -10 1 -19 12 -26 14 -7 20 -6 25 5 3 8 11 14 18 13 7 -2 12
2 11 7 -1 6 12 11 28 11 19 1 40 13 59 33 16 17 36 28 43 25 10 -3 14 5 15 31
1 37 -13 46 -36 23 -9 -9 -15 -10 -20 -2 -13 21 -48 25 -78 9 -16 -8 -41 -15
-55 -15 -61 0 -89 -12 -89 -36 0 -20 -5 -24 -29 -24 -16 0 -31 4 -33 8 -1 5
-21 12 -43 15 -27 4 -35 3 -25 -3 13 -8 12 -10 -3 -10 -10 0 -16 -4 -12 -9 3
-5 -7 -12 -22 -14 -27 -4 -27 -4 3 -6 27 -1 44 -15 44 -37 0 -2 -18 -4 -40 -4
-39 0 -40 1 -40 34 0 37 2 37 -85 14 -65 -17 -84 -29 -77 -47 5 -14 4 -14 -12
-2 -16 14 -16 15 6 28 l23 14 -27 -6 c-33 -6 -41 5 -195 310 -58 116 -129 246
-158 291 -127 195 -268 299 -487 359 -67 18 -68 18 -85 -2 -10 -12 -51 -30
-93 -41 -168 -46 -270 -77 -270 -82 0 -3 50 -13 110 -23 209 -34 399 -103 543
-198 142 -93 222 -205 362 -505 56 -119 70 -168 47 -162 -20 5 -121 -15 -117
-23 4 -5 -11 -10 -32 -11 -21 -1 -47 -3 -58 -4 -11 -1 -36 -2 -57 -3 -32 -1
-36 -4 -31 -23 4 -20 3 -21 -7 -5 -6 9 -20 17 -31 17 -11 0 -17 -4 -14 -10 3
-5 0 -10 -9 -10 -8 0 -22 -3 -32 -7 -11 -4 -15 -3 -10 5 3 6 -7 4 -24 -4 -16
-9 -34 -13 -39 -10 -5 3 -44 1 -87 -6 -60 -9 -72 -14 -54 -19 19 -5 13 -7 -20
-7 -25 1 -69 -6 -99 -14 -29 -9 -63 -14 -75 -12 -20 4 -20 4 -1 -5 24 -12 26
-11 -55 -15 -104 -5 -150 -23 -150 -60 0 -12 10 -16 40 -16 33 0 40 -3 40 -20
0 -19 -7 -20 -90 -20 -84 0 -90 1 -90 20 0 22 -37 43 -55 31 -5 -3 -37 -9 -70
-12 -33 -4 -80 -14 -104 -23 -33 -13 -51 -15 -73 -7 -21 7 -27 7 -22 -1 5 -7
-4 -9 -28 -4 -27 5 -41 2 -60 -13 -16 -13 -28 -17 -35 -10 -15 15 -73 0 -66
-18 5 -13 -1 -14 -36 -8 -27 4 -47 3 -56 -5 -8 -6 -23 -9 -35 -5 -11 3 -35 2
-53 -3 -17 -6 -53 -13 -78 -17 -41 -5 -46 -9 -42 -26 5 -17 2 -20 -18 -17 -13
2 -23 9 -21 16 1 6 -7 12 -19 12 -13 0 -18 -4 -13 -11 5 -8 -2 -10 -21 -6 -25
4 -60 -7 -75 -24 -3 -3 -13 -8 -22 -12 -13 -4 -18 -1 -18 9 0 12 -6 15 -22 10
-13 -3 -27 -6 -33 -7 -5 0 -1 -4 10 -9 16 -7 17 -9 3 -9 -21 -1 -27 -32 -29
-146 -2 -92 10 -681 16 -815 2 -41 6 -156 9 -255 9 -275 16 -364 29 -361 7 2
9 1 5 -1 -4 -3 -10 -4 -14 -3 -4 1 -10 -3 -13 -9 -6 -10 -110 8 -231 39 -25 6
-65 15 -90 20 -25 5 -103 23 -175 40 -185 44 -226 51 -249 44 -13 -3 -16 -2
-9 3 7 5 -107 34 -280 72 -161 35 -305 67 -322 72 -34 10 -313 72 -425 95 -41
8 -110 24 -153 35 -43 11 -120 29 -170 39 -89 18 -507 111 -652 145 -38 9 -97
22 -130 30 -33 8 -114 26 -180 40 -66 14 -156 35 -200 45 -164 39 -236 51
-255 45 -11 -3 -20 -3 -20 2 0 10 -54 27 -150 47 -36 8 -106 24 -157 36 l-91
21 -6 72 c-3 40 -10 252 -17 472 -6 220 -14 467 -18 549 l-6 149 -115 40 c-63
22 -191 65 -284 97 l-168 58 -107 -25 c-58 -14 -111 -27 -117 -28 -6 -2 -29
-54 -51 -117 -106 -292 -145 -404 -146 -420 -1 -10 -5 -18 -9 -18 -4 0 -8 -5
-8 -11 0 -9 -78 -231 -106 -303 -5 -14 -4 -17 6 -11 8 5 11 3 9 -4 -3 -7 -9
-13 -14 -13 -13 -1 -33 -49 -29 -71 2 -10 -1 -15 -7 -12 -5 4 -9 -3 -9 -14 0
-29 -2 -34 -15 -47 -17 -17 -49 -21 -60 -8 -16 17 -124 57 -157 57 -20 0 -25
3 -16 9 9 7 4 8 -14 5 -15 -2 -25 0 -22 4 3 5 -8 11 -23 15 -15 4 -32 10 -38
14 -8 6 -186 68 -215 75 -3 1 -12 5 -20 8 -8 4 -64 24 -125 46 -81 30 -111 37
-117 28 -7 -10 -12 -4 -10 14 1 5 -160 62 -183 65 -5 0 -28 9 -50 19 -22 10
-54 18 -72 19 -17 0 -31 5 -30 11 1 5 -8 10 -20 9 -12 0 -20 3 -18 7 7 10 -43
21 -57 13 -7 -5 -8 -2 -3 6 6 10 3 12 -13 8 -12 -4 -25 -2 -28 3 -5 8 -69 39
-81 39 -2 0 -1 -6 2 -12 4 -7 0 -5 -8 4 -21 27 -98 52 -109 36 -6 -10 -8 -9
-8 2 0 9 -27 25 -73 41 -205 76 -417 149 -429 149 -8 0 -18 4 -24 9 -5 5 -40
18 -79 30 -38 13 -79 27 -90 32 -58 26 -188 68 -196 63 -5 -3 -9 0 -9 5 0 6
-3 10 -7 9 -5 -1 -21 4 -37 11 -16 6 -36 9 -43 7 -8 -3 -12 -2 -9 3 6 9 -20
21 -89 41 -37 11 -65 33 -65 52 0 4 24 -1 53 -12 28 -10 122 -44 207 -74 514
-181 936 -331 1005 -356 44 -16 278 -100 520 -185 242 -86 521 -185 620 -220
99 -35 186 -65 193 -67 9 -2 22 21 37 62 13 36 96 270 185 520 89 250 183 516
210 590 27 74 87 243 133 375 47 132 147 413 222 625 76 212 149 417 162 455
45 128 384 1079 403 1132 l19 52 -71 148 c-38 81 -87 184 -108 228 -142 300
-272 575 -287 604 -17 32 -29 38 -174 90 -96 33 -155 59 -153 66 3 7 8 40 12
75 l7 64 80 43 c115 61 186 83 269 83 76 -1 135 -17 168 -47 11 -10 41 -53 65
-95 25 -42 53 -84 63 -93 17 -15 20 -13 60 42 41 56 42 60 37 118 -10 108 -51
168 -133 195 -114 38 -363 -35 -564 -164 -48 -31 -56 -33 -67 -20 -9 13 -18 7
-60 -43 -26 -32 -57 -71 -69 -87 -16 -23 -25 -27 -43 -21 -19 6 -22 12 -17 34
3 14 17 80 32 146 37 165 39 357 7 460 -22 71 -75 165 -92 165 -5 0 -23 -17
-39 -37z m29 -226 c20 -61 24 -92 24 -202 0 -138 -28 -310 -49 -302 -6 2 -35
12 -65 23 l-54 19 6 105 c9 141 59 413 84 454 10 15 29 -20 54 -97z m-78 -603
c20 -3 37 -11 37 -16 0 -5 -8 -7 -17 -5 -10 3 -35 8 -55 12 -21 3 -38 11 -38
16 0 6 8 8 18 5 9 -3 34 -8 55 -12z m-138 -3 c-3 -5 -19 -12 -35 -16 -17 -4
-28 -11 -25 -16 4 -5 -2 -6 -11 -2 -15 6 -16 0 -11 -56 5 -60 29 -107 48 -95
5 3 6 -3 2 -12 -5 -14 -2 -16 19 -12 26 5 27 3 44 -91 10 -53 18 -124 17 -158
l-1 -63 27 23 c27 21 46 49 103 146 14 25 30 47 36 49 16 5 35 -56 29 -97 -2
-21 -2 -42 2 -47 3 -5 36 -9 73 -9 36 0 64 -3 61 -7 -2 -5 7 -4 20 1 14 6 27
7 30 4 3 -3 5 37 3 88 -2 70 -8 106 -24 142 -12 26 -19 47 -16 47 3 0 16 -25
30 -55 92 -200 -14 -455 -223 -534 -67 -26 -153 -38 -162 -22 -4 6 -38 20 -75
30 -170 47 -283 190 -292 370 -3 67 -13 111 -15 65 0 -10 -3 -14 -5 -8 -9 22
38 139 77 191 45 60 109 107 182 134 56 20 102 25 92 10z m375 -155 c0 -6 -20
10 -45 34 -25 24 -45 49 -45 54 0 6 20 -10 45 -34 25 -24 45 -49 45 -54z
m-267 -53 c3 -5 -8 -33 -24 -63 l-28 -55 -1 63 c0 59 1 62 24 62 14 0 27 -3
29 -7z m-865 -958 c45 -16 82 -33 82 -39 0 -6 -25 -80 -55 -165 -31 -84 -54
-158 -52 -164 2 -8 269 -110 273 -104 0 1 25 71 54 155 30 83 59 152 64 151 6
0 49 -15 96 -33 58 -22 84 -37 82 -47 -2 -8 -26 -77 -53 -153 -35 -99 -46
-142 -38 -147 17 -10 361 -131 364 -127 1 2 28 75 60 163 31 88 59 163 61 166
2 4 45 -8 96 -26 73 -26 92 -36 90 -50 -2 -9 -21 -65 -42 -124 -21 -58 -60
-167 -86 -241 -26 -74 -51 -139 -55 -144 -4 -5 -90 21 -191 57 -101 36 -374
133 -606 216 -233 83 -427 153 -432 156 -4 3 20 82 54 177 35 95 77 215 96
266 18 53 38 91 44 89 6 -2 48 -16 94 -32z m68 -1120 c285 -102 521 -182 524
-178 4 5 19 44 35 88 15 44 41 117 57 162 l29 82 87 -30 c48 -17 91 -34 95
-39 5 -4 -29 -115 -76 -246 -46 -132 -88 -249 -91 -261 -4 -13 -12 -23 -18
-23 -11 0 -1219 429 -1227 436 -3 3 61 194 65 194 1 0 235 -83 520 -185z
m-8889 -199 c411 -24 842 -271 1069 -611 74 -112 142 -259 160 -347 22 -111
29 -318 15 -449 -25 -229 -80 -451 -222 -908 -154 -491 -214 -728 -248 -976
-89 -639 -88 -1082 5 -1645 14 -85 26 -164 27 -175 2 -16 -7 -21 -53 -27 -191
-29 -1064 -144 -1150 -152 -19 -2 -147 -16 -283 -31 -145 -16 -252 -24 -256
-19 -5 5 -36 92 -69 194 -33 102 -128 394 -212 650 -354 1086 -428 1300 -597
1725 -166 419 -358 830 -543 1164 l-90 163 66 82 c380 467 872 870 1370 1119
227 114 456 200 605 228 70 12 249 27 289 23 14 -2 67 -5 117 -8z m-4762 -65
c244 -60 377 -109 560 -205 269 -140 476 -297 746 -566 185 -184 326 -343 455
-515 l57 -76 -95 -142 c-166 -248 -246 -405 -328 -644 -156 -451 -208 -883
-197 -1638 8 -546 28 -866 83 -1370 14 -126 26 -243 27 -258 l2 -28 -295 0
c-162 1 -348 3 -413 6 -92 5 -117 4 -111 -6 4 -8 3 -10 -4 -5 -17 10 -57 14
-229 21 -139 6 -155 5 -150 -9 4 -9 3 -16 -1 -16 -14 0 -30 55 -47 155 -45
275 -135 679 -205 922 -116 399 -259 776 -522 1378 -296 674 -376 882 -467
1205 -36 125 -49 185 -100 455 -24 130 -27 367 -6 487 76 437 361 774 732 868
64 16 105 19 228 16 129 -2 168 -7 280 -35z m13426 -116 c244 -41 530 -89 634
-106 105 -17 195 -32 201 -34 19 -6 -56 -205 -76 -205 -9 0 -85 14 -169 31
-84 17 -154 29 -155 27 -2 -2 -19 -48 -38 -104 l-36 -101 144 -83 c79 -45 146
-86 149 -90 2 -4 -12 -52 -32 -108 l-35 -100 -307 185 c-168 103 -337 205
-376 228 -124 74 -460 277 -463 280 -2 2 55 165 79 228 7 15 17 27 24 27 6 0
211 -34 456 -75z m-383 -611 c29 -8 64 -19 77 -24 l25 -9 -32 -88 c-17 -48
-32 -90 -34 -92 -2 -2 -30 4 -62 13 -90 25 -136 21 -174 -13 -28 -25 -33 -36
-33 -76 0 -39 5 -51 28 -71 34 -29 99 -47 140 -38 18 3 103 49 190 101 200
119 236 133 336 133 174 0 346 -91 407 -216 24 -49 26 -63 22 -137 -12 -229
-175 -357 -404 -318 -59 11 -170 44 -180 54 -5 4 43 147 56 167 7 12 16 12 62
-3 29 -9 72 -19 94 -23 153 -24 228 150 96 224 -54 30 -117 37 -167 19 -22 -8
-104 -53 -182 -100 -170 -103 -208 -117 -312 -117 -171 0 -315 79 -372 204
-26 57 -25 169 1 239 61 164 215 226 418 171z m8843 -924 c7 0 21 -7 31 -17
17 -15 18 -15 18 0 0 10 5 17 11 17 7 0 9 -10 5 -25 -4 -14 -2 -25 4 -25 15 0
12 -17 -4 -23 -10 -4 -13 -1 -9 9 4 10 0 15 -8 14 -29 -4 -37 1 -32 20 4 13 0
20 -9 20 -19 0 -50 34 -41 44 4 4 11 -2 15 -14 4 -11 13 -20 19 -20z m-243
-52 c22 -22 13 -28 -38 -28 -43 0 -50 3 -50 20 0 16 7 20 38 20 21 0 43 -5 50
-12z m399 6 c-3 -3 -12 -4 -19 -1 -8 3 -5 6 6 6 11 1 17 -2 13 -5z m-67 -38
c0 -3 -4 -8 -10 -11 -5 -3 -10 -1 -10 4 0 6 5 11 10 11 6 0 10 -2 10 -4z
m-19828 -178 c200 -380 400 -842 593 -1373 98 -271 243 -712 304 -925 53 -185
311 -1111 311 -1115 0 -17 -1030 -96 -1426 -109 l-202 -7 -6 43 c-29 201 -80
747 -96 1038 -18 319 -24 938 -11 1148 29 499 115 868 275 1184 67 134 153
278 166 278 4 0 45 -73 92 -162z m20198 132 c-30 -4 -71 -11 -90 -15 -19 -4
-32 -5 -29 -1 10 10 83 24 129 24 45 -1 45 -1 -10 -8z m243 -5 c322 -84 425
-389 201 -594 -31 -28 -59 -49 -62 -46 -3 2 -12 -1 -20 -8 -12 -9 -14 -9 -9 0
4 7 -23 -2 -59 -18 -162 -74 -366 -78 -516 -11 -27 11 -48 16 -48 11 0 -6 -7
-6 -19 0 -10 6 -21 8 -23 5 -3 -2 -30 20 -61 50 -64 63 -97 138 -97 219 0 57
12 88 25 67 17 -28 182 -82 218 -72 5 1 6 -7 2 -18 -8 -26 7 -26 30 0 22 25
53 26 71 3 8 -11 13 -13 14 -5 0 17 17 15 17 -3 0 -8 -4 -15 -9 -15 -5 0 -7
-4 -3 -10 3 -5 13 -6 22 -3 11 4 14 3 9 -5 -4 -7 -2 -13 3 -13 26 -3 30 -4 37
-11 4 -5 12 -8 18 -8 6 0 4 5 -4 11 -11 8 -9 9 10 3 14 -4 28 -11 32 -17 7
-11 73 -11 121 -1 16 3 24 10 21 16 -5 7 -2 8 5 3 14 -8 73 43 65 57 -3 4 2 8
10 8 20 0 29 35 24 91 -3 34 -9 46 -26 54 -26 12 -29 33 -4 31 9 0 17 6 18 14
2 30 17 50 36 50 14 0 18 5 14 15 -3 9 3 23 14 32 11 10 20 25 20 35 0 10 6
18 13 18 21 1 -35 29 -93 46 -30 9 -77 20 -105 24 -50 7 -50 8 -10 9 23 0 67
-6 98 -14z m-800 -77 c12 -2 21 -7 20 -12 -3 -15 -303 -167 -315 -160 -6 4 -8
3 -5 -3 4 -6 -5 -15 -19 -22 -31 -14 -34 -14 -34 -1 0 6 9 10 20 10 14 0 20 6
18 18 -2 12 3 16 18 14 31 -4 77 16 68 30 -4 7 -3 8 5 4 6 -4 23 1 39 12 15
10 39 22 54 26 22 5 26 10 22 34 -3 19 -2 23 5 12 5 -8 7 -18 5 -22 -8 -13 1
-9 36 17 18 13 37 22 41 20 4 -3 10 -1 13 4 4 5 -3 12 -14 16 -21 7 -25 16
-12 29 4 4 8 1 10 -7 2 -9 13 -17 25 -19z m-78 -38 c3 -5 1 -10 -4 -10 -6 0
-11 5 -11 10 0 6 2 10 4 10 3 0 8 -4 11 -10z m-85 -35 c0 -16 -27 -32 -37 -21
-7 7 16 36 28 36 5 0 9 -7 9 -15z m874 -39 c39 -13 56 -30 56 -55 0 -11 -5 -9
-19 6 -21 22 -151 49 -195 41 -14 -3 -26 -2 -26 3 0 19 134 23 184 5z m-84
-43 c0 -5 -5 -15 -10 -23 -8 -12 -10 -11 -10 8 0 12 5 22 10 22 6 0 10 -3 10
-7z m-88 -10 c-19 -7 -4 -23 23 -23 13 0 26 -4 29 -9 3 -5 -9 -9 -28 -9 -21 0
-37 6 -40 15 -7 18 1 33 17 32 9 0 8 -2 -1 -6z m128 -13 c0 -5 -4 -10 -10 -10
-5 0 -10 5 -10 10 0 6 5 10 10 10 6 0 10 -4 10 -10z m75 0 c3 -5 1 -10 -4 -10
-6 0 -11 5 -11 10 0 6 2 10 4 10 3 0 8 -4 11 -10z m-1113 -31 c5 -3 2 -9 -7
-12 -9 -4 -13 -3 -10 3 3 6 2 10 -4 10 -6 0 -7 8 -4 17 5 14 8 14 11 2 3 -7 9
-17 14 -20z m865 9 c-3 -8 -6 -5 -6 6 -1 11 2 17 5 13 3 -3 4 -12 1 -19z
m-907 -83 c-7 -9 -15 -13 -17 -11 -7 7 7 26 19 26 6 0 6 -6 -2 -15z m-1940
-109 c0 -53 -15 -69 -24 -25 -10 50 -7 69 9 69 11 0 15 -12 15 -44z m-5765 14
c3 -6 -1 -7 -9 -4 -18 7 -21 14 -7 14 6 0 13 -4 16 -10z m7612 -202 c-3 -7 -5
-2 -5 12 0 14 2 19 5 13 2 -7 2 -19 0 -25z m2725 -225 c90 -93 188 -193 217
-224 l52 -57 -28 -19 c-53 -37 -1330 -833 -1345 -838 -9 -4 -22 1 -31 9 -31
31 -402 458 -405 466 -2 4 37 32 85 60 48 29 98 59 110 66 21 13 29 6 159
-141 129 -146 139 -154 158 -141 12 7 86 53 164 101 l144 87 -44 47 c-46 47
-107 114 -172 187 l-36 42 106 63 107 63 127 -134 c69 -73 130 -131 136 -128
38 21 382 233 391 240 9 7 -22 47 -118 148 -72 76 -131 142 -132 146 0 6 173
119 189 124 1 0 75 -75 166 -167z m-2756 109 c-11 -10 -15 4 -8 28 l7 25 3
-23 c2 -13 1 -26 -2 -30z m-34 -82 c9 -23 8 -23 -12 -5 -22 20 -27 39 -8 33 6
-2 15 -15 20 -28z m-88 -276 c3 -8 2 -12 -4 -9 -6 3 -10 10 -10 16 0 14 7 11
14 -7z m-5457 -136 c-2 -13 -4 -5 -4 17 -1 22 1 32 4 23 2 -10 2 -28 0 -40z
m9011 -309 l133 -136 -694 -462 c-382 -253 -696 -461 -699 -461 -10 0 -159
181 -154 188 3 5 266 179 585 387 320 208 581 381 581 384 0 7 -28 37 -172
188 -54 57 -98 107 -98 112 0 5 44 36 97 70 l98 61 95 -97 c53 -54 155 -159
228 -234z m-3641 159 c-3 -8 -6 -5 -6 6 -1 11 2 17 5 13 3 -3 4 -12 1 -19z
m-227 -136 c0 -5 -16 -8 -35 -8 -46 1 -46 16 0 16 19 0 35 -4 35 -8z m-224
-50 c-10 -2 -22 0 -28 6 -6 6 0 7 19 4 21 -5 23 -7 9 -10z m-176 -26 c0 -2 -7
-7 -16 -10 -8 -3 -12 -2 -9 4 6 10 25 14 25 6z m-400 -86 c0 -5 -7 -10 -16
-10 -8 0 -12 5 -9 10 3 6 10 10 16 10 5 0 9 -4 9 -10z m-235 -30 c3 -5 -3 -10
-15 -10 -12 0 -18 5 -15 10 3 6 10 10 15 10 5 0 12 -4 15 -10z m-145 -50 c-14
-4 -34 -8 -45 -8 -16 0 -15 2 5 8 14 4 34 8 45 8 16 0 15 -2 -5 -8z m5331 -76
c46 -47 85 -89 87 -93 2 -5 -63 -69 -143 -142 -80 -73 -145 -136 -145 -141 0
-5 41 -51 91 -103 l90 -93 127 59 c70 33 159 75 197 93 l70 34 93 -91 c50 -51
91 -96 89 -101 -1 -4 -50 -30 -107 -56 -140 -63 -446 -202 -1019 -464 -261
-119 -480 -215 -487 -212 -6 2 -60 60 -119 127 l-108 122 124 121 c68 67 232
225 364 351 225 216 341 328 595 573 58 56 108 102 111 102 4 0 44 -39 90 -86z
m-9274 44 c-3 -8 -6 -5 -6 6 -1 11 2 17 5 13 3 -3 4 -12 1 -19z m20 -540 c-3
-8 -6 -5 -6 6 -1 11 2 17 5 13 3 -3 4 -12 1 -19z m-3589 -239 c32 -10 -49 -2
-113 12 -30 6 -25 7 23 2 35 -3 76 -9 90 -14z m13628 -59 c84 -43 181 -135
218 -208 72 -142 49 -273 -73 -419 -58 -70 -176 -167 -194 -160 -7 3 -49 44
-93 92 l-79 88 35 25 c66 49 147 138 160 176 32 98 -47 196 -157 196 -82 -1
-177 -68 -212 -150 -21 -48 -22 -64 -20 -293 1 -168 -2 -256 -11 -287 -33
-122 -121 -236 -241 -316 -217 -144 -433 -131 -600 35 -90 91 -124 162 -124
261 0 65 5 85 33 143 39 78 119 169 211 239 62 46 66 48 82 31 67 -71 149
-166 149 -171 0 -4 -25 -27 -55 -50 -66 -52 -115 -121 -122 -170 -5 -41 22
-90 69 -125 64 -47 179 -9 243 82 l30 43 6 286 c6 323 9 337 82 434 74 98 200
189 325 234 57 21 81 24 168 22 92 -3 107 -6 170 -38z m-13246 5 c47 -7 74
-13 60 -14 -33 -1 -211 26 -218 34 -4 3 12 3 33 0 22 -4 78 -12 125 -20z m175
-24 c26 -6 31 -9 15 -9 -14 -1 -43 3 -65 7 -26 6 -31 9 -15 9 14 1 43 -3 65
-7z m-498 -44 l9 -44 -42 -12 c-49 -15 -79 -43 -70 -66 15 -39 139 -58 216
-34 19 6 78 13 131 14 52 1 105 7 116 13 33 18 35 58 5 94 -23 27 -23 29 -5
17 12 -7 27 -23 34 -35 64 -120 -255 -239 -507 -189 -187 37 -247 97 -183 184
27 37 62 54 164 81 110 30 120 28 132 -23z m201 36 c-10 -2 -28 -2 -40 0 -13
2 -5 4 17 4 22 1 32 -1 23 -4z m49 -9 c-3 -3 -12 -4 -19 -1 -8 3 -5 6 6 6 11
1 17 -2 13 -5z m422 -10 c8 -7 -64 -2 -89 6 -16 6 -6 7 30 3 30 -3 57 -7 59
-9z m-369 -4 c18 -12 2 -12 -25 0 -13 6 -15 9 -5 9 8 0 22 -4 30 -9z m-1061
-426 c2 -2 2 -5 0 -7 -106 -84 -148 -121 -144 -127 2 -4 56 -15 119 -25 l114
-17 79 64 78 64 80 -13 c43 -8 82 -16 85 -19 3 -3 -7 -15 -21 -27 -14 -12 -45
-39 -69 -59 -31 -26 -40 -38 -30 -42 8 -2 78 -14 155 -26 77 -12 147 -23 155
-25 8 -3 50 27 94 66 l79 71 61 -7 c87 -9 117 -16 114 -26 -2 -4 -56 -55 -121
-113 -79 -71 -126 -106 -141 -106 -13 0 -174 24 -357 54 -184 30 -424 69 -534
86 -110 17 -210 34 -223 38 -21 7 -8 19 118 118 l142 111 81 -14 c45 -8 84
-16 86 -19z m4328 -336 c-3 -7 -5 -2 -5 12 0 14 2 19 5 13 2 -7 2 -19 0 -25z
m-4509 -123 c249 -41 461 -75 471 -75 10 0 56 34 102 75 59 53 89 73 104 70
11 -2 54 -9 94 -16 l75 -11 -35 -32 c-148 -133 -214 -193 -226 -204 -11 -11
-111 3 -603 85 -325 54 -590 101 -590 105 0 4 24 25 53 48 38 29 59 39 77 35
14 -3 229 -39 478 -80z m-103 -185 c303 -22 570 -43 595 -46 l44 -6 -54 -49
c-64 -56 -63 -56 -270 -35 l-125 13 -35 -28 c-56 -43 -75 -68 -59 -73 8 -3 68
-21 133 -41 66 -19 121 -37 123 -39 5 -4 -106 -106 -116 -106 -4 0 -99 29
-211 64 -113 35 -351 110 -530 166 -179 56 -326 103 -328 105 -2 2 32 31 75
65 l78 61 65 -5 c36 -3 313 -24 615 -46z m-10988 -272 c-3 -8 -6 -5 -6 6 -1
11 2 17 5 13 3 -3 4 -12 1 -19z m10311 -14 c17 -4 32 -9 32 -13 -1 -3 -25 -25
-55 -49 l-53 -43 -90 7 c-116 9 -173 0 -207 -32 -25 -23 -26 -27 -12 -41 11
-11 41 -18 94 -21 70 -3 101 2 303 53 250 64 383 78 530 56 165 -25 270 -87
255 -150 -9 -41 -37 -73 -96 -113 -113 -76 -312 -105 -512 -75 -54 8 -101 18
-105 22 -4 4 1 13 12 20 10 8 36 30 57 50 38 35 39 35 86 24 26 -6 86 -11 133
-12 69 -1 94 3 132 21 25 13 49 29 52 37 7 20 -18 42 -62 55 -77 21 -154 12
-379 -46 -191 -49 -234 -57 -344 -61 -182 -8 -313 20 -376 79 -73 69 56 196
236 234 65 13 291 12 369 -2z m-11419 -4173 c29 -11 84 -38 122 -61 38 -22 72
-42 76 -43 4 -1 32 -25 62 -54 30 -28 59 -49 65 -46 5 3 6 1 2 -5 -3 -6 2 -17
13 -24 49 -34 177 -215 254 -358 184 -344 315 -888 397 -1645 48 -446 112
-1326 98 -1340 -5 -6 -626 150 -636 160 -3 3 -9 108 -13 233 -10 283 -25 491
-50 697 -11 88 -20 167 -20 175 -3 49 -53 291 -79 383 -74 265 -182 407 -308
407 -106 0 -184 -124 -229 -361 -13 -74 -17 -146 -17 -334 0 -516 61 -860 215
-1222 120 -282 361 -814 524 -1153 191 -398 262 -553 315 -682 26 -65 51 -114
55 -110 5 4 6 0 3 -8 -3 -8 -1 -26 5 -40 5 -14 12 -35 14 -48 2 -12 8 -33 12
-45 5 -12 10 -25 11 -29 6 -18 41 -186 45 -213 37 -297 25 -559 -42 -900 -68
-350 -204 -812 -499 -1695 -263 -785 -509 -1330 -762 -1684 -73 -103 -230
-266 -307 -321 -207 -147 -410 -174 -610 -81 -470 218 -508 1228 -114 2981 58
258 201 833 254 1020 31 113 145 485 150 493 1 1 44 -17 96 -41 52 -24 125
-55 163 -68 37 -13 70 -29 73 -36 3 -6 -34 -130 -81 -275 -324 -1000 -468
-1639 -453 -2013 7 -172 30 -247 95 -315 79 -81 159 -88 257 -20 140 98 302
363 449 738 258 654 382 1323 347 1863 -10 152 -31 351 -56 514 -2 17 -14 93
-25 170 -31 209 -54 311 -70 307 -10 -2 -11 0 -2 11 7 8 8 17 4 21 -4 4 -8 12
-8 17 -1 5 -3 11 -4 14 -1 3 -3 8 -4 13 -7 31 -49 104 -77 134 -148 156 -318
890 -434 1863 -115 979 -107 1649 27 2220 12 50 22 97 23 105 1 8 5 22 8 30 4
8 22 60 41 115 52 152 70 199 80 206 5 4 5 12 1 19 -5 9 -4 11 3 6 7 -4 12 -2
12 4 0 20 114 195 152 234 21 21 38 42 38 47 0 5 4 9 9 9 6 0 29 12 53 28 74
47 81 49 154 51 51 1 86 -4 123 -18z m2460 -663 c453 -93 415 -77 426 -180 3
-29 13 -96 21 -148 8 -52 28 -185 45 -295 16 -110 66 -418 110 -685 229 -1391
258 -1574 329 -2070 92 -650 146 -1146 192 -1785 17 -240 17 -1383 0 -1665
-41 -664 -76 -1077 -182 -2120 -113 -1115 -157 -1629 -180 -2125 -7 -132 -15
-293 -18 -357 l-7 -117 -205 135 c-113 74 -274 176 -359 226 l-154 92 7 171
c37 934 62 1352 107 1780 47 446 118 865 209 1225 17 68 27 127 23 131 -22 22
-716 307 -782 321 -16 4 -65 -136 -156 -447 -88 -303 -161 -601 -315 -1290
-170 -764 -259 -1111 -325 -1273 -13 -33 -22 -42 -34 -37 -44 18 -572 215
-611 228 -124 42 -332 117 -340 122 -10 6 3 65 76 340 145 544 311 1041 718
2136 52 142 96 265 98 275 2 11 6 21 9 24 12 11 239 652 234 661 -3 4 -1 9 4
11 16 6 233 678 310 963 23 83 50 182 61 220 61 217 155 673 194 940 52 351
87 749 106 1195 13 296 13 1226 0 1680 -15 528 -29 1110 -35 1473 -5 268 -4
327 7 327 7 0 195 -37 417 -82z m1713 -374 c156 -36 286 -68 289 -72 5 -6 145
-1544 214 -2347 209 -2434 234 -4019 89 -5555 -59 -630 -147 -1227 -264 -1800
l-48 -235 21 -17 c12 -9 144 -106 292 -214 317 -231 970 -725 1039 -785 5 -4
4 -50 -3 -106 -59 -516 -119 -1353 -124 -1710 -1 -90 -3 -163 -4 -163 -1 0
-163 125 -360 278 -657 511 -1052 805 -1675 1245 -76 54 -138 103 -138 110 0
69 72 671 116 972 45 310 169 1051 274 1645 109 617 209 1278 259 1720 64 560
81 852 88 1470 11 1073 -39 1885 -247 3966 -74 746 -135 1403 -146 1573 l-7
104 26 -7 c14 -3 153 -36 309 -72z m2100 -508 c607 -149 1089 -263 1255 -297
l62 -13 5 -80 c3 -45 15 -427 26 -851 11 -423 23 -850 27 -947 6 -171 5 -178
-13 -178 -24 0 -379 96 -529 143 -60 19 -176 57 -257 83 -81 26 -149 46 -151
43 -2 -2 6 -130 19 -284 13 -154 69 -833 124 -1510 56 -676 105 -1239 110
-1251 7 -19 59 -45 365 -184 88 -40 229 -96 314 -125 l66 -22 7 -169 c4 -93
21 -524 38 -959 16 -434 31 -818 33 -853 1 -37 -2 -62 -8 -62 -17 0 -226 124
-458 271 -120 77 -219 139 -220 139 -1 0 0 -204 1 -452 4 -427 -6 -776 -29
-1073 -45 -591 -94 -1034 -218 -1975 -67 -501 -80 -603 -83 -636 -3 -29 8 -40
157 -164 216 -180 352 -299 401 -352 l41 -43 -23 -170 c-58 -422 -128 -1041
-158 -1410 -9 -104 -19 -214 -22 -243 l-5 -52 -112 92 c-62 50 -312 251 -556
446 l-444 356 7 135 c16 313 81 1056 141 1601 210 1901 225 2049 280 2835 33
470 42 1540 17 1930 -95 1471 -142 2015 -367 4260 -124 1239 -205 2066 -205
2094 0 6 4 11 9 11 5 0 164 -38 353 -84z m23372 -158 c6 -4 -4 -8 -21 -8 -32
0 -32 1 -15 20 12 14 18 17 21 8 2 -7 9 -16 15 -20z m106 -14 c0 -2 -9 -4 -20
-4 -11 0 -20 4 -20 9 0 5 9 7 20 4 11 -3 20 -7 20 -9z m-360 -54 c0 -5 -14
-10 -31 -10 -17 0 -28 4 -24 10 3 6 17 10 31 10 13 0 24 -4 24 -10z m-480
-140 c0 -5 -18 -10 -40 -10 -22 0 -40 5 -40 10 0 6 18 10 40 10 22 0 40 -4 40
-10z m-635 -150 c3 -5 -1 -10 -9 -10 -9 0 -16 5 -16 10 0 6 4 10 9 10 6 0 13
-4 16 -10z m-288 -76 c-3 -3 -12 -4 -19 -1 -8 3 -5 6 6 6 11 1 17 -2 13 -5z
m1782 -146 c-1 -100 -17 -118 -18 -20 -1 48 3 82 9 82 6 0 10 -27 9 -62z
m-2626 -115 c-7 -2 -19 -2 -25 0 -7 3 -2 5 12 5 14 0 19 -2 13 -5z m-78 -13
c3 -5 -3 -10 -15 -10 -12 0 -18 5 -15 10 3 6 10 10 15 10 5 0 12 -4 15 -10z
m2635 -100 c0 -5 -7 -7 -15 -4 -8 4 -15 8 -15 10 0 2 7 4 15 4 8 0 15 -4 15
-10z m-3205 -56 c-9 -9 -19 -13 -23 -10 -3 4 0 11 8 16 24 15 33 11 15 -6z
m2942 -30 c-3 -3 -12 -4 -19 -1 -8 3 -5 6 6 6 11 1 17 -2 13 -5z m-240 -70
c-3 -3 -12 -4 -19 -1 -8 3 -5 6 6 6 11 1 17 -2 13 -5z m-160 -40 c-3 -3 -12
-4 -19 -1 -8 3 -5 6 6 6 11 1 17 -2 13 -5z m-164 -41 c-13 -2 -33 -2 -45 0
-13 2 -3 4 22 4 25 0 35 -2 23 -4z m-3343 -93 c0 -11 -4 -20 -10 -20 -5 0 -10
9 -10 20 0 11 5 20 10 20 6 0 10 -9 10 -20z m80 10 c0 -5 -4 -10 -10 -10 -5 0
-10 5 -10 10 0 6 5 10 10 10 6 0 10 -4 10 -10z m2715 -80 c-3 -5 -11 -10 -16
-10 -6 0 -7 5 -4 10 3 6 11 10 16 10 6 0 7 -4 4 -10z m-145 -35 c5 3 10 1 10
-4 0 -6 -4 -11 -9 -11 -18 0 -41 12 -41 22 0 6 6 5 15 -2 8 -6 19 -9 25 -5z
m-3157 -12 c-7 -2 -19 -2 -25 0 -7 3 -2 5 12 5 14 0 19 -2 13 -5z m3022 -33
c-3 -5 -12 -10 -18 -10 -7 0 -6 4 3 10 19 12 23 12 15 0z m-152 -47 c-7 -2
-21 -2 -30 0 -10 3 -4 5 12 5 17 0 24 -2 18 -5z m-3223 -12 c0 -12 -25 -21
-56 -21 -16 0 -23 4 -18 11 3 6 17 9 30 6 13 -2 24 0 24 4 0 5 5 9 10 9 6 0
10 -4 10 -9z m2915 -68 c-11 -3 -27 -10 -35 -17 -13 -10 -13 -9 -1 7 7 9 23
16 35 16 20 -1 20 -2 1 -6z m-68 -29 c-3 -3 -12 -4 -19 -1 -8 3 -5 6 6 6 11 1
17 -2 13 -5z m-204 -51 c-7 -2 -19 -2 -25 0 -7 3 -2 5 12 5 14 0 19 -2 13 -5z
m-127 -32 c-3 -5 -15 -7 -26 -4 -28 7 -25 13 6 13 14 0 23 -4 20 -9z m-109
-37 c-3 -3 -12 -4 -19 -1 -8 3 -5 6 6 6 11 1 17 -2 13 -5z m-54 -21 c-7 -2
-21 -2 -30 0 -10 3 -4 5 12 5 17 0 24 -2 18 -5z m-110 -20 c-7 -2 -21 -2 -30
0 -10 3 -4 5 12 5 17 0 24 -2 18 -5z m-3863 -203 c0 -5 -10 -10 -22 -9 -22 0
-22 1 -3 9 11 5 21 9 23 9 1 1 2 -3 2 -9z m3130 -10 c8 -5 11 -10 5 -10 -5 0
-17 5 -25 10 -8 5 -10 10 -5 10 6 0 17 -5 25 -10z m-148 -25 c0 -5 -5 -11 -11
-13 -6 -2 -11 4 -11 13 0 9 5 15 11 13 6 -2 11 -8 11 -13z m-137 -45 c-3 -5
-12 -10 -18 -10 -7 0 -6 4 3 10 19 12 23 12 15 0z m62 4 c-3 -3 -12 -4 -19 -1
-8 3 -5 6 6 6 11 1 17 -2 13 -5z m-480 -130 c-3 -3 -12 -4 -19 -1 -8 3 -5 6 6
6 11 1 17 -2 13 -5z m-310 -80 c-3 -3 -12 -4 -19 -1 -8 3 -5 6 6 6 11 1 17 -2
13 -5z m-3337 -44 c0 -13 -7 -20 -20 -20 -22 0 -28 25 -7 33 22 10 27 7 27
-13z m320 0 c0 -18 -7 -20 -60 -20 -53 0 -60 2 -60 20 0 18 7 20 60 20 53 0
60 -2 60 -20z m2915 10 c7 -12 -2 -12 -30 0 -19 8 -19 9 2 9 12 1 25 -3 28 -9z
m-3455 -80 c0 -5 -5 -10 -11 -10 -5 0 -7 5 -4 10 3 6 8 10 11 10 2 0 4 -4 4
-10z m3000 -30 c0 -5 -4 -10 -10 -10 -5 0 -10 5 -10 10 0 6 5 10 10 10 6 0 10
-4 10 -10z m-390 -125 c5 3 10 1 10 -4 0 -6 -4 -11 -9 -11 -18 0 -41 12 -41
22 0 6 6 5 15 -2 8 -6 19 -9 25 -5z m-3470 -85 c0 -5 -10 -10 -22 -10 -19 0
-20 2 -8 10 19 13 30 13 30 0z m3025 -40 c3 -6 -1 -7 -9 -4 -18 7 -21 14 -7
14 6 0 13 -4 16 -10z m-418 -126 c-3 -3 -12 -4 -19 -1 -8 3 -5 6 6 6 11 1 17
-2 13 -5z m-3253 -12 c3 -4 -11 -9 -30 -9 -18 -1 -31 3 -28 8 7 11 51 12 58 1z
m3121 -22 c-3 -5 -12 -7 -20 -3 -21 7 -19 13 6 13 11 0 18 -4 14 -10z m-108
-36 c-3 -3 -12 -4 -19 -1 -8 3 -5 6 6 6 11 1 17 -2 13 -5z m-472 -134 c3 -6
-1 -7 -9 -4 -18 7 -21 14 -7 14 6 0 13 -4 16 -10z m-278 -76 c-3 -3 -12 -4
-19 -1 -8 3 -5 6 6 6 11 1 17 -2 13 -5z m-3391 -24 c8 0 14 -4 14 -10 0 -5
-13 -10 -30 -10 -21 0 -30 5 -30 16 0 11 5 14 16 10 9 -3 22 -6 30 -6z m3096
-45 c0 -5 -5 -11 -11 -13 -6 -2 -11 4 -11 13 0 9 5 15 11 13 6 -2 11 -8 11
-13z m-142 -49 c-7 -7 -14 -6 -21 1 -9 9 -7 12 9 10 14 -1 18 -5 12 -11z
m-413 -122 c-3 -3 -12 -4 -19 -1 -8 3 -5 6 6 6 11 1 17 -2 13 -5z m-274 -81
c-7 -2 -19 -2 -25 0 -7 3 -2 5 12 5 14 0 19 -2 13 -5z m-133 -33 c-14 -8 -50
-2 -50 9 0 4 14 5 31 3 19 -3 26 -7 19 -12z m-125 -40 c3 -6 -1 -7 -9 -4 -18
7 -21 14 -7 14 6 0 13 -4 16 -10z m-48 -16 c-3 -3 -12 -4 -19 -1 -8 3 -5 6 6
6 11 1 17 -2 13 -5z m-2350 -36 c-3 -8 -6 -5 -6 6 -1 11 2 17 5 13 3 -3 4 -12
1 -19z m2112 -22 c-8 -8 -78 -10 -85 -3 -4 4 14 7 41 7 27 0 46 -2 44 -4z
m-2109 -130 c0 -8 -4 -18 -10 -21 -5 -3 -10 3 -10 14 0 12 5 21 10 21 6 0 10
-6 10 -14z m40 -6 c0 -11 -4 -20 -10 -20 -5 0 -11 -12 -11 -27 -2 -26 -2 -26
-6 -4 -6 29 4 71 17 71 6 0 10 -9 10 -20z m1634 8 c-3 -4 -12 -8 -20 -8 -8 0
-14 4 -14 8 0 4 9 8 19 8 11 0 17 -4 15 -8z m-1677 -70 c-3 -8 -6 -5 -6 6 -1
11 2 17 5 13 3 -3 4 -12 1 -19z m1376 -2 c17 -13 16 -14 -7 -12 -15 0 -26 7
-26 14 0 15 10 15 33 -2z m-1376 -58 c-3 -8 -6 -5 -6 6 -1 11 2 17 5 13 3 -3
4 -12 1 -19z m1228 12 c-3 -5 -12 -10 -18 -10 -7 0 -6 4 3 10 19 12 23 12 15
0z m-92 -37 c-7 -2 -19 -2 -25 0 -7 3 -2 5 12 5 14 0 19 -2 13 -5z m-1146 -95
c-3 -8 -6 -5 -6 6 -1 11 2 17 5 13 3 -3 4 -12 1 -19z m812 18 c-12 -10 -59
-15 -59 -6 0 5 14 10 32 10 17 0 29 -2 27 -4z m-129 -45 c0 -5 -9 -7 -20 -4
-11 3 -20 7 -20 9 0 2 9 4 20 4 11 0 20 -4 20 -9z m-103 -37 c-3 -3 -12 -4
-19 -1 -8 3 -5 6 6 6 11 1 17 -2 13 -5z m-54 -21 c-7 -2 -21 -2 -30 0 -10 3
-4 5 12 5 17 0 24 -2 18 -5z m-110 -20 c-7 -2 -21 -2 -30 0 -10 3 -4 5 12 5
17 0 24 -2 18 -5z m-396 -65 c-3 -7 -5 -2 -5 12 0 14 2 19 5 13 2 -7 2 -19 0
-25z m33 12 c0 -11 -4 -20 -10 -20 -5 0 -10 9 -10 20 0 11 5 20 10 20 6 0 10
-9 10 -20z m197 14 c-3 -3 -12 -4 -19 -1 -8 3 -5 6 6 6 11 1 17 -2 13 -5z
m5558 -1251 c-125 -12 -244 -18 -237 -11 4 4 39 9 77 11 95 4 210 5 160 0z
m-485 -33 c-14 -4 -45 -8 -70 -7 l-45 0 50 7 c73 10 96 10 65 0z m103 3 c-7
-2 -21 -2 -30 0 -10 3 -4 5 12 5 17 0 24 -2 18 -5z m-445 -30 c-10 -2 -26 -2
-35 0 -10 3 -2 5 17 5 19 0 27 -2 18 -5z m-239 -17 c-2 -2 -42 -6 -89 -8 -47
-3 -74 -2 -60 2 25 8 157 13 149 6z m570 -100 c-12 -10 -59 -15 -59 -6 0 5 14
10 32 10 17 0 29 -2 27 -4z m110 -12 c10 -9 -6 -11 -41 -6 -21 2 -38 8 -38 14
0 8 68 1 79 -8z m114 -45 c57 -30 159 -134 190 -194 86 -171 77 -363 -25 -515
-38 -57 -139 -150 -163 -150 -5 0 -23 -7 -39 -15 -19 -10 -33 -12 -41 -5 -7 6
-23 6 -46 0 -57 -17 -181 -12 -251 10 -119 36 -224 126 -279 237 -19 38 -35
70 -37 73 -2 2 -7 -2 -12 -10 -6 -8 -10 -12 -11 -7 -1 4 -2 10 -3 15 -24 93
-26 126 -16 198 11 82 69 220 96 231 8 3 35 -1 61 -8 35 -11 49 -21 59 -44 7
-16 21 -39 31 -50 10 -12 19 -27 21 -35 2 -8 14 -26 27 -40 21 -22 23 -30 15
-65 -25 -108 52 -233 162 -264 40 -11 53 -11 96 3 53 18 112 68 137 116 8 16
20 52 26 80 8 39 15 50 30 50 10 0 19 4 19 9 0 4 24 11 53 14 31 4 57 13 64
23 7 9 19 14 27 11 18 -7 30 8 20 25 -4 7 -9 23 -10 35 -4 37 -68 144 -111
185 -21 20 -65 53 -97 72 -65 39 -60 49 7 15z m7693 -521 c2 -35 8 -194 14
-354 l11 -290 -38 -105 c-49 -136 -176 -390 -253 -506 -227 -340 -522 -565
-825 -628 -101 -21 -276 -22 -376 -1 -337 70 -661 350 -877 756 -54 101 -122
254 -122 274 0 7 21 19 48 28 66 23 116 42 122 48 3 3 14 7 25 8 11 2 22 8 23
13 2 5 12 9 22 9 22 0 257 85 275 100 6 5 15 7 18 3 4 -3 7 0 7 7 0 8 16 -12
35 -44 85 -142 213 -274 331 -344 119 -70 180 -86 324 -86 110 -1 134 3 198
26 320 116 578 467 696 948 21 87 25 95 52 103 16 6 31 14 34 18 3 4 17 10 30
13 14 3 68 20 120 39 52 19 97 33 99 31 2 -2 5 -32 7 -66z m-729 -194 c-3 -3
-12 -4 -19 -1 -8 3 -5 6 6 6 11 1 17 -2 13 -5z m-6442 -935 c81 -30 163 -112
195 -194 19 -48 24 -79 24 -160 1 -88 -2 -107 -25 -155 -62 -130 -197 -206
-405 -226 l-72 -6 -6 78 c-3 44 -7 97 -8 119 l-3 40 60 7 c168 21 241 93 205
203 -23 69 -119 96 -208 60 -54 -23 -73 -44 -200 -225 -64 -91 -142 -190 -172
-221 -106 -107 -218 -143 -421 -137 -118 3 -130 6 -192 36 -124 61 -192 168
-204 321 -16 211 96 359 317 420 41 12 112 24 157 27 l81 7 6 -79 c4 -43 8
-96 10 -117 5 -42 6 -42 -106 -52 -134 -13 -218 -81 -218 -176 0 -91 78 -147
190 -136 67 6 123 32 166 79 17 18 79 101 137 183 155 221 232 285 388 320 89
21 226 13 304 -16z m3999 -117 c164 -502 402 -910 710 -1217 282 -280 564
-433 905 -490 132 -22 354 -16 482 14 329 75 606 239 880 518 101 102 245 272
256 300 3 7 8 13 12 13 4 0 13 -170 20 -378 10 -290 11 -384 2 -401 -14 -24
-216 -228 -280 -281 -24 -19 -56 -48 -72 -64 -16 -15 -29 -25 -29 -21 0 4 -14
-5 -31 -19 -17 -14 -34 -26 -37 -26 -14 0 -62 -48 -62 -61 0 -11 -2 -12 -9 -1
-7 11 -11 11 -24 -2 -8 -9 -20 -16 -26 -16 -5 0 -15 -8 -20 -17 -6 -10 -11
-14 -11 -10 0 6 -94 -40 -125 -63 -5 -4 -62 -28 -125 -54 -63 -26 -123 -51
-132 -56 -10 -6 -28 -10 -41 -10 -13 0 -27 -3 -31 -7 -3 -4 -13 -8 -22 -9 -8
-1 -36 -7 -62 -13 -237 -57 -579 -54 -777 5 -176 53 -286 95 -367 139 -14 8
-33 15 -42 15 -9 0 -16 5 -16 11 0 5 -15 17 -32 25 -38 17 -52 26 -172 109
-135 93 -113 74 -311 267 -50 48 -97 96 -105 106 -8 11 -42 50 -75 87 -33 37
-66 78 -73 91 -7 14 -17 22 -22 19 -6 -3 -7 0 -4 8 3 9 -4 22 -18 31 -12 9
-19 16 -14 16 4 0 -5 17 -21 38 -33 41 -160 247 -188 302 -10 19 -21 37 -24
40 -7 6 -124 240 -127 255 -2 9 -47 113 -74 170 -25 51 -131 362 -165 479 -30
107 -31 111 -3 113 11 1 24 6 27 10 3 4 19 9 36 11 16 2 32 7 35 11 3 4 31 15
63 26 31 11 57 22 57 25 0 3 9 6 20 7 10 1 36 10 57 20 21 10 40 18 43 19 44
7 80 18 80 23 0 4 10 7 23 9 21 1 26 -9 61 -116z m-14631 -388 c199 -52 702
-185 1117 -294 415 -109 1003 -264 1305 -344 303 -80 705 -186 895 -236 190
-50 608 -161 930 -245 l585 -154 165 59 c91 32 248 87 350 123 102 36 255 90
340 120 85 30 245 87 355 125 110 39 263 93 340 120 131 47 298 106 1160 410
700 247 769 271 771 269 6 -7 41 -573 36 -579 -9 -8 -142 -60 -212 -83 -30 -9
-63 -24 -72 -32 -9 -8 -23 -13 -30 -10 -7 2 -29 -2 -48 -10 -19 -8 -62 -24
-95 -35 -33 -11 -64 -24 -69 -29 -6 -5 -19 -9 -31 -9 -11 0 -37 -9 -58 -20
-20 -11 -39 -20 -42 -19 -18 2 -64 -14 -68 -25 -3 -8 -16 -13 -30 -13 -13 0
-39 -7 -58 -15 -19 -8 -79 -30 -134 -48 -55 -18 -104 -36 -110 -40 -5 -3 -38
-15 -72 -25 -36 -10 -60 -22 -56 -28 3 -6 1 -7 -4 -4 -10 6 -101 -21 -113 -33
-3 -3 -45 -18 -95 -34 -49 -16 -99 -35 -110 -41 -11 -7 -36 -16 -55 -20 -19
-4 -41 -15 -48 -24 -7 -9 -11 -10 -7 -3 8 16 5 15 -41 -4 -22 -9 -81 -31 -133
-49 -51 -18 -102 -40 -112 -49 -11 -9 -27 -15 -36 -14 -25 3 -103 -23 -103
-34 0 -5 -5 -6 -10 -3 -6 4 -16 3 -23 -2 -7 -5 -32 -15 -57 -22 -25 -7 -47
-16 -50 -20 -3 -3 -70 -28 -150 -54 -79 -27 -150 -56 -158 -65 -7 -10 -11 -11
-7 -4 8 15 5 15 -36 -2 -67 -26 -74 -29 -84 -32 -92 -29 -164 -57 -161 -62 2
-4 -6 -8 -17 -8 -30 -2 -121 -36 -125 -46 -2 -4 -8 -6 -13 -2 -5 3 -15 2 -21
-3 -15 -9 -128 -49 -180 -65 -21 -6 -38 -14 -38 -19 0 -5 -9 -9 -20 -9 -11 0
-49 -12 -83 -26 -34 -15 -96 -37 -137 -50 -41 -12 -70 -23 -65 -24 6 0 2 -5
-8 -11 -9 -5 -21 -7 -27 -4 -5 3 -17 2 -27 -3 -25 -13 -61 -27 -108 -42 -39
-12 -119 -41 -205 -75 -3 -1 -20 -6 -37 -10 -18 -4 -33 -12 -33 -17 0 -5 -4
-7 -8 -4 -4 2 -35 -6 -67 -20 -33 -13 -65 -24 -72 -24 -6 0 -15 -9 -18 -21 -6
-19 -1 -157 11 -294 3 -33 5 -114 5 -180 -1 -66 3 -221 9 -345 12 -266 14
-369 7 -376 -2 -3 -84 15 -181 39 -97 25 -176 41 -176 37 0 -5 29 -70 65 -145
36 -76 65 -145 65 -154 0 -9 -54 -167 -119 -351 -66 -184 -192 -540 -281 -790
-89 -250 -186 -525 -217 -610 -30 -85 -91 -256 -134 -380 -44 -124 -91 -254
-104 -290 -13 -36 -49 -136 -79 -222 -31 -87 -80 -227 -110 -310 -30 -84 -114
-319 -186 -523 -127 -359 -295 -831 -516 -1450 -58 -165 -113 -319 -121 -342
-8 -24 -20 -43 -26 -43 -6 0 -232 78 -502 174 -269 96 -656 234 -860 306 -203
72 -448 159 -543 193 -114 41 -177 68 -184 80 -5 10 -7 21 -4 24 2 3 296 -99
653 -225 356 -127 752 -267 878 -312 127 -45 298 -106 380 -135 83 -29 153
-50 157 -47 6 6 366 1012 468 1307 21 61 93 263 160 450 66 187 174 491 240
675 65 184 138 391 163 460 25 69 72 202 105 295 34 94 108 303 165 465 58
162 176 493 261 735 175 493 205 575 270 757 l45 127 -63 133 c-192 404 -264
554 -310 653 -139 292 -176 369 -236 489 l-65 130 -230 81 c-126 45 -393 139
-591 209 l-361 128 -6 55 c-6 61 4 143 26 194 46 109 207 176 303 126 70 -36
134 -124 165 -225 l12 -42 24 22 c20 19 22 28 17 72 -4 28 -18 86 -31 129 -20
66 -33 88 -77 133 -60 63 -62 62 84 44 130 -16 407 -86 433 -109 4 -4 -17 -20
-48 -36 -30 -16 -67 -39 -82 -51 -24 -20 -16 -18 57 11 145 58 126 61 423 -59
289 -116 343 -136 370 -136 20 0 48 28 72 71 16 30 13 36 -58 122 -21 26 -34
47 -28 47 21 0 225 -50 371 -91 371 -104 530 -138 700 -146 296 -14 619 59
938 212 227 109 378 207 411 266 13 22 21 42 20 44 -11 10 -207 -51 -365 -113
-414 -163 -555 -188 -989 -179 -275 6 -334 13 -720 81 -213 37 -309 51 -445
61 -81 6 -88 9 -165 60 -98 64 -154 93 -265 133 -392 143 -847 112 -1231 -84
-58 -30 -108 -54 -112 -54 -3 0 -8 15 -12 33 -25 116 -104 237 -157 237 -13 0
-48 -28 -92 -72 -76 -78 -126 -164 -147 -253 -14 -63 -14 -205 0 -268 l11 -47
-53 -73 c-29 -39 -69 -98 -88 -129 -39 -65 21 -33 -629 -342 l-385 -183 -20
-51 c-11 -29 -24 -52 -30 -52 -5 0 -178 41 -384 92 l-374 93 6 650 c4 358 7
865 7 1128 0 262 2 477 5 477 3 0 168 -43 368 -96z m13917 -121 c34 -111 82
-237 91 -241 4 -2 6 -9 3 -17 -3 -7 -1 -16 5 -20 29 -17 7 -41 -48 -51 -41 -8
-112 -44 -106 -54 3 -6 -1 -7 -9 -4 -13 5 -54 -10 -66 -25 -9 -11 -52 -33 -56
-28 -2 2 8 32 22 68 30 76 109 346 119 407 4 23 10 42 14 42 3 0 17 -35 31
-77z m-3825 -394 c429 -56 783 -104 786 -108 7 -6 32 -322 27 -326 -2 -1 -158
-41 -348 -89 -190 -47 -540 -136 -779 -197 -238 -60 -435 -108 -438 -106 -3 4
-22 207 -23 247 0 12 47 26 205 60 l204 44 -6 80 c-3 45 -8 106 -12 136 l-6
55 -195 22 c-107 12 -200 22 -207 22 -7 1 -13 33 -17 89 -4 48 -9 106 -12 130
-5 39 -3 42 18 42 13 0 374 -45 803 -101z m3995 -56 c7 -16 15 -34 16 -42 1
-8 9 -18 16 -22 7 -5 10 -9 6 -9 -4 0 4 -25 17 -55 l25 -55 -43 0 c-111 0
-262 -68 -366 -165 -164 -153 -289 -398 -337 -660 -33 -180 -28 -480 11 -609
8 -27 15 -56 15 -65 0 -16 -106 -131 -120 -131 -4 0 -12 17 -18 38 -91 296
-81 698 25 1031 12 40 20 78 16 84 -3 5 -1 7 5 3 6 -4 19 16 32 51 12 32 37
86 56 121 19 34 31 62 27 62 -4 0 -3 4 3 8 22 15 99 128 96 141 -2 7 1 11 5 8
5 -3 36 22 68 55 111 114 226 187 345 219 85 23 85 23 100 -8z m-5970 -167 c0
-11 -19 -15 -25 -6 -3 5 1 10 9 10 9 0 16 -2 16 -4z m-6352 -309 c25 -26 69
-121 77 -163 5 -26 -3 -36 -79 -107 l-85 -77 -13 57 c-17 76 -16 221 1 253 35
64 63 75 99 37z m12500 -68 c113 -56 217 -206 257 -369 25 -104 30 -288 11
-400 -9 -52 -21 -99 -25 -103 -5 -5 -40 0 -77 11 -77 21 -74 17 -55 111 25
120 7 290 -40 384 -28 55 -95 125 -139 143 -52 23 -130 20 -183 -5 -183 -89
-275 -392 -202 -663 6 -22 3 -29 -11 -34 -11 -4 -27 -14 -38 -23 -10 -9 -19
-15 -20 -14 -3 6 -45 -10 -42 -16 2 -3 -7 -7 -20 -7 -28 -2 -38 26 -55 158
-35 272 69 597 241 751 91 82 148 105 261 106 66 1 84 -3 137 -30z m-11991
-149 c-72 -67 -144 -168 -187 -262 l-28 -63 -7 50 c-4 28 -15 89 -25 137 l-17
86 66 30 c76 35 209 78 249 81 7 1 -16 -26 -51 -59z m4520 44 c-3 -3 -12 -4
-19 -1 -8 3 -5 6 6 6 11 1 17 -2 13 -5z m4149 -236 c4 -65 5 -118 3 -118 -2
-1 -302 -22 -666 -49 -365 -26 -665 -50 -668 -53 -3 -2 2 -100 11 -217 9 -117
14 -214 12 -216 -2 -3 -58 -7 -124 -11 l-120 -7 -24 337 c-12 185 -20 339 -16
343 8 9 1569 121 1578 114 4 -3 10 -59 14 -123z m2280 55 c-3 -21 -8 -49 -11
-63 -26 -115 -37 -207 -42 -334 -7 -166 -7 -166 -86 -215 -20 -12 -35 -27 -32
-32 4 -5 0 -6 -8 -3 -8 3 -18 0 -23 -7 -5 -8 -3 -10 6 -4 9 5 11 4 6 -4 -4 -6
-12 -8 -18 -5 -6 4 -17 -2 -25 -12 -8 -10 -17 -18 -21 -17 -11 4 -62 -21 -62
-29 0 -5 -4 -8 -10 -8 -5 0 -48 -18 -95 -40 -47 -22 -87 -40 -90 -40 -3 0 -20
-6 -38 -13 -17 -8 -45 -17 -61 -21 l-28 -7 6 48 c12 96 18 339 9 389 l-10 51
55 18 c149 47 358 178 507 319 39 36 72 65 74 66 2 0 1 -17 -3 -37z m-11330
-95 c5 -57 6 -104 2 -106 -4 -2 -20 4 -37 12 -26 14 -34 14 -63 1 l-35 -14
-21 44 -21 44 77 61 c42 33 80 60 83 60 4 0 11 -46 15 -102z m-266 -163 c0 -5
-18 -18 -40 -27 l-41 -17 32 40 c24 30 34 37 40 27 5 -7 9 -17 9 -23z m13255
-107 c5 4 5 2 1 -5 -3 -6 -2 -14 3 -18 10 -6 7 -133 -3 -143 -3 -3 -6 -16 -6
-30 0 -25 -38 -190 -47 -205 -2 -4 -18 4 -35 18 -16 14 -33 25 -36 25 -4 1
-17 9 -29 19 l-21 18 19 89 c10 49 21 134 25 189 9 162 6 158 68 92 29 -31 57
-53 61 -49z m-12416 -203 c145 -35 285 -136 360 -260 167 -277 61 -649 -225
-790 -91 -45 -222 -74 -260 -57 -14 7 -23 16 -20 21 3 5 -4 9 -17 9 -41 0
-142 33 -206 69 -168 93 -272 272 -275 470 -1 59 -5 83 -13 83 -39 0 32 186
100 265 43 50 57 41 86 -53 27 -88 87 -186 134 -218 42 -28 49 -26 97 29 l26
29 49 -29 c84 -49 92 -46 36 11 l-54 55 18 41 c17 38 20 40 63 40 56 0 136
-37 178 -82 54 -57 68 -94 69 -185 l0 -81 48 5 c34 4 47 2 47 -7 0 -9 18 -11
78 -5 42 4 82 11 88 16 17 14 17 130 -1 204 -22 97 -69 180 -145 255 -104 105
-222 150 -387 150 -51 0 -93 4 -93 9 0 24 129 27 219 6z m5577 1 c176 -47 325
-212 389 -431 39 -132 45 -320 15 -465 -12 -58 -25 -109 -30 -114 -6 -6 -37
-3 -82 7 -40 10 -83 17 -95 17 -28 0 -27 -6 -4 82 56 208 17 415 -99 542 -63
68 -137 101 -230 101 -65 0 -85 -5 -142 -33 -122 -60 -233 -208 -273 -366 -28
-113 -19 -297 20 -398 5 -13 -8 -24 -65 -52 -40 -20 -79 -36 -86 -36 -8 0 -17
-6 -20 -13 -9 -24 -33 -14 -43 17 -29 94 -36 152 -36 286 0 188 27 304 110
470 51 102 157 238 191 246 14 4 22 9 19 12 -3 3 27 14 67 24 40 10 77 23 82
28 6 6 20 10 33 10 13 0 23 5 23 10 0 6 6 10 13 10 7 0 46 13 87 29 88 35 89
35 156 17z m9909 -398 c5 -139 9 -270 9 -292 l1 -38 -71 -4 c-314 -14 -599
-373 -705 -889 -15 -73 -22 -156 -26 -308 l-6 -208 -176 -104 c-163 -97 -176
-103 -183 -84 -4 11 -11 95 -14 187 -16 405 65 840 221 1191 209 472 567 795
886 800 l56 1 8 -252z m-3669 233 c-3 -4 20 -11 52 -15 102 -11 251 -67 338
-127 38 -26 48 -29 56 -18 8 11 9 11 5 -3 -4 -11 10 -29 43 -57 27 -23 51 -41
55 -41 9 0 31 -23 36 -36 2 -7 23 -33 47 -60 61 -71 131 -167 132 -181 0 -7 5
-13 10 -13 6 0 10 -5 10 -11 0 -7 13 -34 30 -60 16 -27 27 -49 24 -49 -3 0 2
-12 10 -27 21 -38 66 -143 66 -155 0 -6 6 -24 14 -41 17 -39 40 -119 38 -129
-1 -5 3 -8 9 -8 5 0 8 -4 5 -9 -3 -5 3 -48 14 -97 53 -247 70 -645 37 -884 -8
-58 -12 -109 -9 -114 3 -5 0 -6 -6 -2 -7 4 -12 4 -12 -1 0 -4 -12 -14 -27 -20
-26 -12 -85 -57 -162 -123 -19 -17 -36 -28 -38 -26 -3 2 3 40 11 83 48 233 61
570 31 800 -63 474 -288 863 -590 1015 -513 259 -1122 -157 -1383 -944 -94
-283 -129 -526 -119 -840 9 -304 72 -568 187 -786 184 -349 433 -524 740 -523
208 1 381 72 572 234 64 54 65 55 63 28 -1 -15 -5 -33 -9 -39 -4 -7 -1 -12 6
-12 10 0 10 -2 1 -8 -11 -7 -32 -89 -50 -196 l-8 -49 -234 -139 c-204 -122
-243 -141 -298 -151 -87 -14 -243 4 -353 41 -47 16 -92 30 -100 33 -8 2 -17 6
-20 9 -14 16 -137 93 -147 93 -7 0 -11 2 -9 4 2 2 -28 34 -68 71 -39 37 -76
71 -81 77 -47 45 -191 274 -236 373 -62 138 -146 419 -163 547 -4 28 -9 61
-11 75 -2 14 -9 97 -15 185 -20 272 5 557 76 855 14 58 26 112 28 120 2 8 6
24 10 35 32 84 38 100 36 100 -4 0 62 168 94 238 14 31 22 57 18 57 -4 0 -2 4
4 8 6 4 32 48 59 97 53 99 109 187 162 253 19 23 32 42 30 42 -8 0 42 56 118
133 39 39 69 76 67 81 -2 6 -1 8 3 4 7 -6 122 82 137 106 4 6 8 8 8 4 0 -4 30
12 68 36 146 94 323 147 537 159 28 2 51 4 53 5 2 1 1 -2 -2 -7z m-3266 -347
c18 -263 20 -338 11 -343 -14 -9 -222 -23 -229 -16 -3 2 -11 100 -20 217 -8
117 -15 214 -16 215 -3 4 -356 -23 -360 -28 -2 -2 2 -91 10 -198 8 -106 13
-195 11 -197 -1 -2 -57 -6 -124 -10 l-120 -7 -13 197 -13 196 -46 0 c-71 0
-432 -28 -438 -34 -3 -3 2 -100 11 -217 9 -117 15 -213 13 -215 -6 -6 -232
-21 -239 -15 -6 6 -58 672 -52 679 3 5 1446 109 1525 111 l65 1 24 -336z
m-3950 179 c0 -5 -11 -41 -25 -82 -86 -254 -100 -582 -36 -833 16 -62 25 -115
20 -116 -5 -2 -6 -9 -3 -14 4 -6 3 -8 -3 -5 -6 4 -39 -20 -74 -53 -35 -33 -68
-58 -74 -56 -5 1 -15 17 -21 34 -5 18 -13 30 -17 26 -3 -3 -5 2 -5 12 1 11 -6
52 -16 93 -61 264 -59 559 5 833 22 92 25 96 101 114 15 3 29 12 32 20 3 7 12
11 19 8 8 -3 30 2 48 10 40 17 49 19 49 9z m9550 -122 c0 -2 -23 -58 -51 -123
-127 -295 -228 -669 -273 -1008 -29 -215 -35 -325 -32 -634 l2 -310 -25 35
c-56 75 -214 214 -232 203 -5 -3 -9 -1 -9 5 0 6 -21 20 -47 32 l-46 21 7 186
c11 316 50 622 111 897 38 166 80 330 95 371 6 15 8 29 5 32 -2 3 0 11 6 19 6
7 8 13 3 13 -5 0 -3 4 4 8 7 5 14 23 15 40 1 18 6 32 11 32 4 0 6 9 3 20 -3
11 -1 18 3 15 8 -5 32 55 35 87 3 43 20 48 179 49 83 1 162 4 176 8 28 8 60 9
60 2z m-9904 -28 c-3 -10 -15 -74 -27 -143 -16 -100 -20 -165 -20 -324 1 -109
4 -203 8 -209 4 -6 6 -23 5 -38 -1 -15 4 -58 12 -96 14 -66 14 -77 -10 -204
-14 -74 -27 -161 -31 -194 -3 -33 -10 -66 -16 -72 -6 -9 -37 -13 -87 -13 -42
0 -148 -5 -234 -11 -87 -6 -168 -8 -180 -5 -41 10 -50 45 -36 138 39 269 92
521 157 752 14 48 26 93 28 100 1 6 5 18 8 26 4 8 19 53 34 99 l28 83 50 20
c90 36 100 39 101 36 0 -2 7 2 15 8 8 7 29 15 47 19 19 4 30 11 25 18 -4 6 -1
8 8 5 8 -3 28 0 44 7 45 20 78 19 71 -2z m5781 -129 c24 -14 48 -22 53 -19 6
4 7 -1 3 -11 -5 -14 -3 -16 11 -11 9 4 15 3 12 -2 -3 -4 3 -16 14 -26 11 -10
20 -14 20 -9 0 8 14 -7 85 -87 54 -61 144 -187 145 -201 0 -4 13 -30 30 -57
31 -53 30 -70 -5 -138 -7 -12 -25 -61 -41 -108 -16 -47 -31 -85 -34 -85 -3 0
-16 28 -28 61 -87 225 -275 433 -452 499 l-60 22 38 28 c44 33 152 146 152
160 0 15 9 13 57 -16z m-6641 -231 c18 -62 25 -282 12 -378 -16 -120 -80 -286
-154 -397 -24 -37 -44 -73 -44 -79 0 -7 -3 -10 -6 -6 -10 10 -56 -52 -48 -64
4 -8 3 -9 -4 -5 -6 4 -41 -16 -76 -44 -36 -27 -91 -62 -123 -77 -32 -15 -60
-29 -63 -33 -3 -3 -14 -6 -25 -8 -11 -2 -45 -8 -75 -13 -30 -6 -91 -8 -135 -4
-44 3 -93 6 -110 6 -24 0 -27 2 -15 10 12 9 10 10 -8 6 -12 -3 -20 -1 -17 3 3
5 -4 12 -16 15 -40 13 -111 64 -158 112 -43 45 -93 104 -98 114 -72 156 -98
242 -108 359 l-6 76 54 17 c29 9 57 17 60 17 4 0 7 -20 7 -45 0 -79 30 -197
71 -281 82 -167 238 -273 400 -274 67 0 181 33 246 71 70 42 165 135 216 212
127 191 169 477 102 688 -5 15 -2 22 14 26 12 3 21 9 21 13 0 8 21 15 57 19 6
0 19 -25 29 -56z m-279 -98 c8 -22 16 -76 19 -120 14 -202 -82 -399 -241 -494
-50 -30 -68 -35 -139 -39 -69 -4 -90 -1 -134 18 -123 53 -212 215 -212 386 0
41 2 44 43 62 23 10 53 21 67 25 l26 6 -4 -64 c-13 -203 141 -336 302 -260 54
26 120 103 145 169 30 80 31 197 2 262 -12 26 -19 50 -15 53 13 13 90 40 108
38 12 -1 24 -16 33 -42z m-332 -55 c3 -6 -1 -7 -9 -4 -18 7 -21 14 -7 14 6 0
13 -4 16 -10z m9079 -34 c208 -75 361 -276 435 -571 79 -317 39 -712 -105
-1024 -93 -201 -263 -394 -414 -470 -99 -50 -171 -65 -280 -59 -106 6 -173 31
-262 98 -90 68 -148 143 -213 275 -149 301 -164 708 -39 1084 39 119 102 250
165 343 66 99 211 236 298 282 97 51 148 64 258 65 73 1 105 -4 157 -23z
m-13031 -611 c31 -10 57 -24 57 -29 0 -5 -36 -111 -80 -234 -45 -124 -77 -228
-73 -232 7 -7 290 -110 355 -130 l26 -8 72 202 c39 112 75 208 79 214 4 8 45
-3 130 -33 68 -24 126 -47 129 -50 3 -3 -8 -44 -25 -93 -17 -48 -51 -142 -75
-209 -23 -67 -40 -124 -37 -127 8 -9 511 -188 514 -184 1 2 39 106 84 233 45
126 83 231 85 232 8 8 251 -87 254 -99 2 -11 -243 -713 -253 -726 -2 -2 -291
99 -765 270 -107 38 -359 128 -560 199 -201 72 -368 134 -373 138 -6 6 146
449 239 697 l16 41 71 -26 c40 -15 98 -35 130 -46z m4592 -169 c33 -22 62 -43
65 -46 34 -34 83 -69 91 -65 5 4 9 0 9 -7 0 -8 17 -32 38 -54 20 -21 57 -66
82 -99 25 -33 48 -62 51 -65 3 -3 21 -33 40 -67 18 -35 37 -63 42 -63 4 0 1
-13 -8 -30 -8 -16 -16 -33 -17 -37 0 -5 -7 -18 -15 -30 -8 -12 -16 -28 -17
-35 -2 -7 -12 -33 -23 -58 -11 -25 -28 -66 -39 -92 -10 -27 -21 -48 -24 -48
-3 0 -16 26 -29 58 -58 134 -180 306 -278 387 -114 95 -182 136 -305 180 l-92
32 42 27 c23 14 42 30 42 34 0 4 13 15 28 24 43 25 123 109 115 121 -3 6 -1 7
5 3 11 -6 16 5 14 25 -2 12 121 -52 183 -95z m-1181 12 c-6 -10 98 -118 113
-118 7 0 13 -5 13 -11 0 -6 9 -8 23 -4 16 5 18 4 8 -3 -11 -8 -5 -15 25 -31
38 -20 39 -21 14 -27 -59 -17 -242 -118 -320 -177 -47 -36 -128 -109 -181
-164 l-96 -99 -7 110 c-3 61 -6 145 -6 187 l0 75 53 50 c30 27 64 57 78 67
174 126 226 157 261 155 15 -1 25 -5 22 -10z m3450 -368 c281 -72 501 -323
591 -676 124 -488 -30 -1091 -371 -1453 -446 -474 -1054 -415 -1329 129 -159
314 -178 749 -49 1138 146 439 481 791 827 866 95 21 240 19 331 -4z m7656
-183 c32 -6 117 -42 153 -64 20 -13 37 -21 37 -18 0 13 163 -144 190 -185 14
-19 30 -39 37 -45 7 -5 9 -15 5 -21 -7 -10 -160 -104 -169 -104 -3 0 -34 26
-69 59 -105 96 -214 140 -348 141 -348 1 -688 -372 -826 -906 -9 -38 -18 -46
-96 -93 -88 -53 -104 -59 -104 -40 0 20 69 293 89 354 11 32 17 63 15 67 -3 4
-1 8 4 8 9 0 22 33 21 54 -1 5 3 12 8 15 11 8 123 235 123 250 0 6 3 11 8 11
4 0 27 30 52 68 25 37 52 72 60 79 8 7 12 13 8 13 -4 0 13 21 37 47 24 25 41
51 38 56 -3 6 -1 7 4 4 11 -7 41 21 42 37 0 6 7 11 15 12 22 3 96 65 90 75 -3
5 1 6 9 3 7 -2 26 7 40 22 15 15 27 23 27 19 0 -5 11 2 25 15 14 13 25 21 25
17 0 -4 36 7 80 23 115 42 247 52 370 27z m-10446 -73 c107 -28 193 -79 286
-173 73 -73 93 -101 138 -191 109 -223 135 -472 77 -752 -57 -277 -227 -554
-439 -715 -84 -64 -226 -128 -327 -149 -240 -49 -478 43 -630 244 -377 497
-153 1387 423 1679 138 70 331 93 472 57z m-4029 -750 c394 -141 718 -254 719
-252 2 2 40 108 86 236 45 127 84 232 85 232 0 0 57 -20 125 -45 68 -25 125
-45 127 -45 2 0 3 -6 3 -12 0 -12 -249 -718 -256 -726 -2 -3 -662 229 -1214
428 -74 26 -214 76 -310 111 -96 34 -177 63 -179 65 -2 2 13 52 34 111 50 144
54 153 59 153 2 0 326 -115 721 -256z m14377 188 c8 -8 -542 -343 -551 -336
-10 8 91 146 149 204 104 104 220 154 335 145 32 -3 63 -9 67 -13z m-2928
-254 c16 -40 34 -86 41 -103 7 -16 16 -40 20 -52 3 -13 10 -23 14 -23 4 0 7
-8 8 -17 3 -28 59 -124 68 -116 4 5 5 2 1 -5 -15 -26 153 -254 262 -355 7 -6
21 -20 30 -30 21 -23 157 -119 198 -140 17 -9 34 -13 38 -10 3 4 6 1 6 -5 0
-12 136 -66 193 -76 20 -4 37 -11 37 -16 0 -9 -151 -100 -167 -100 -6 0 -22
18 -36 39 -42 63 -146 169 -213 217 -530 378 -1239 -17 -1578 -880 -54 -136
-106 -317 -131 -458 l-17 -97 -97 -59 c-374 -228 -556 -331 -559 -318 -2 8 4
36 13 62 27 81 83 314 99 413 9 51 20 173 26 270 16 256 27 288 163 470 29 39
45 71 42 80 -3 9 -3 12 1 9 4 -4 14 3 24 15 29 37 113 178 154 257 21 41 45
83 53 92 8 9 12 22 8 27 -3 6 -2 11 4 11 10 0 114 206 114 228 0 6 4 12 7 12
9 0 36 61 32 73 -1 4 2 7 7 7 8 0 26 46 23 61 0 3 59 5 131 6 91 1 151 6 192
18 33 9 72 19 88 22 15 3 27 10 27 16 0 6 3 7 6 4 4 -4 19 0 33 8 14 7 49 24
78 36 31 13 50 27 46 33 -3 6 -3 8 1 4 15 -13 129 59 119 75 -3 5 -1 7 4 4 12
-7 139 98 193 159 44 50 107 127 140 170 14 18 25 33 26 34 0 0 13 -33 28 -72z
m-1662 -158 c26 -27 44 -50 41 -50 -3 0 23 -27 58 -60 35 -33 70 -58 77 -55 7
3 10 0 7 -5 -6 -10 71 -63 92 -63 7 0 11 -3 8 -5 -3 -3 2 -10 10 -16 13 -10
11 -19 -15 -73 -16 -35 -26 -63 -23 -63 3 0 -1 -8 -9 -17 -22 -25 -50 -83 -41
-83 5 0 3 -4 -3 -8 -6 -4 -30 -43 -53 -87 -24 -44 -48 -85 -53 -92 -5 -7 -7
-17 -3 -23 3 -5 2 -10 -4 -10 -11 0 -104 -149 -104 -167 0 -7 -3 -11 -6 -9 -3
2 -28 -32 -56 -75 -27 -43 -52 -78 -55 -79 -3 0 -18 42 -34 93 -30 98 -104
277 -116 277 -4 0 -7 6 -7 13 0 7 -16 41 -36 76 -20 34 -37 65 -37 68 0 3 26
49 59 102 72 118 167 292 211 389 19 39 36 72 40 72 3 0 27 -22 52 -50z
m-9826 -345 c474 -80 866 -145 873 -145 6 0 11 -7 11 -15 0 -13 -88 -265 -95
-273 -2 -2 -106 17 -231 42 -125 25 -231 43 -234 39 -17 -20 -101 -275 -94
-283 5 -4 97 -59 204 -121 107 -62 196 -113 198 -114 3 -3 -86 -252 -97 -273
-5 -8 -73 28 -226 121 -351 212 -507 306 -885 535 -195 118 -381 231 -412 250
-32 19 -58 39 -58 46 0 6 25 81 55 166 31 85 58 161 60 169 4 9 15 12 38 7 17
-4 420 -72 893 -151z m8879 90 c96 -31 182 -73 242 -117 70 -52 182 -158 204
-195 11 -18 26 -30 31 -27 6 4 8 2 5 -3 -4 -6 1 -21 11 -34 10 -13 26 -41 37
-61 10 -20 23 -34 27 -32 5 3 7 1 6 -3 -2 -5 14 -47 35 -94 21 -46 45 -97 52
-114 17 -39 62 -208 81 -310 10 -52 18 -164 21 -316 4 -209 3 -252 -17 -380
-24 -154 -24 -156 -33 -179 -3 -8 -11 -40 -17 -70 -14 -61 -55 -194 -71 -225
-5 -11 -11 -30 -12 -43 0 -12 -4 -22 -8 -22 -3 0 -14 -19 -23 -43 -17 -45 -4
-36 -320 -222 -50 -29 -51 -29 -34 -5 217 312 339 706 339 1093 1 415 -116
738 -345 954 -92 87 -178 138 -296 174 -112 34 -272 32 -395 -5 -492 -150
-878 -709 -956 -1388 -16 -141 -6 -391 20 -519 94 -461 356 -762 707 -812 l86
-13 -182 -107 c-196 -117 -191 -115 -261 -71 -20 13 -40 20 -43 17 -3 -4 -6
-1 -6 5 0 6 -14 19 -31 28 -44 22 -205 186 -258 262 -71 103 -126 222 -179
387 -29 90 -40 136 -64 275 -19 111 -17 507 5 637 22 136 81 377 106 438 5 11
22 56 39 100 16 44 33 89 37 100 5 11 7 23 7 28 -1 4 2 7 8 7 13 0 42 69 34
81 -3 5 0 8 6 7 6 -2 19 15 28 37 8 22 18 42 22 45 3 3 21 30 40 60 19 30 37
57 40 60 9 9 41 60 36 60 -2 0 12 17 31 38 19 20 47 53 61 71 38 50 157 166
236 231 143 118 349 213 520 241 28 4 110 6 181 4 107 -3 144 -8 210 -30z
m-4159 -657 c14 -62 27 -124 30 -138 2 -14 7 -33 10 -43 6 -20 -17 -55 -103
-153 -34 -40 -59 -75 -55 -80 4 -4 2 -4 -4 -1 -12 7 -46 -28 -37 -37 4 -3 0
-6 -8 -6 -8 0 -43 -28 -79 -62 -36 -33 -83 -73 -104 -87 -125 -83 -199 -128
-266 -158 -41 -19 -88 -41 -105 -49 -16 -8 -84 -28 -150 -45 -108 -28 -136
-31 -280 -32 -145 -2 -170 1 -267 26 -59 15 -128 37 -152 48 -53 23 -54 26
-58 239 -2 109 0 144 9 143 7 -2 34 -16 61 -33 60 -36 158 -74 254 -97 85 -20
269 -22 366 -4 148 28 326 106 462 202 142 100 346 319 425 456 11 18 21 30
23 28 3 -2 15 -55 28 -117z m3936 -39 c283 -59 468 -361 468 -766 0 -349 -128
-675 -350 -893 -290 -284 -656 -270 -863 34 -101 150 -157 384 -143 604 32
500 329 939 687 1017 80 17 133 18 201 4z m-9576 -170 c64 -9 221 -50 245 -65
6 -3 -76 -243 -86 -252 -2 -2 -23 3 -47 11 -83 29 -164 39 -210 27 -102 -27
-148 -139 -93 -224 27 -40 99 -70 175 -70 l65 -1 207 123 c114 67 240 138 280
157 139 65 267 67 446 6 337 -116 451 -372 301 -672 -90 -181 -297 -261 -539
-208 -81 17 -210 62 -210 73 0 6 19 64 42 128 33 93 46 117 58 113 60 -24 190
-55 227 -55 101 0 171 47 193 130 40 147 -168 272 -340 204 -25 -10 -119 -62
-209 -116 -219 -132 -264 -154 -361 -174 -175 -35 -383 25 -515 148 l-56 53
-29 171 c-32 186 -31 193 14 282 55 108 142 179 251 206 75 18 95 19 191 5z
m5757 -198 c9 -20 17 -42 17 -48 0 -6 9 -28 19 -50 11 -21 33 -65 49 -98 40
-81 71 -137 88 -156 8 -8 14 -20 14 -25 0 -5 15 -28 33 -51 17 -23 48 -64 67
-90 70 -97 219 -247 285 -289 16 -10 40 -28 52 -38 50 -42 272 -160 337 -177
17 -5 74 -21 126 -36 90 -25 107 -27 315 -27 215 0 223 1 335 31 63 17 118 28
121 25 10 -11 77 -231 98 -322 28 -123 58 -307 72 -444 15 -153 6 -631 -14
-776 -33 -230 -34 -233 -75 -256 -20 -11 -145 -85 -277 -164 -436 -259 -558
-331 -561 -327 -2 2 19 66 47 142 60 166 100 313 130 490 31 177 34 571 6 740
-106 630 -472 1065 -971 1151 -111 20 -322 14 -436 -11 -483 -107 -954 -520
-1240 -1090 -139 -276 -242 -616 -267 -878 -10 -112 -19 -49 -27 188 -4 116
-18 516 -31 890 -14 374 -25 700 -25 725 0 41 7 54 69 134 39 48 90 110 114
136 l44 47 59 -9 c69 -11 248 -3 353 17 90 18 268 73 276 86 4 5 17 9 29 9 13
0 29 6 35 14 7 8 24 17 39 21 15 4 29 10 32 13 3 4 27 18 53 32 27 14 57 33
68 43 10 10 19 15 19 12 0 -5 50 24 60 35 3 3 21 17 40 30 40 28 63 47 133
110 88 79 117 112 110 123 -3 7 -3 9 2 5 8 -8 75 57 120 116 15 20 30 36 34
36 3 0 14 -18 24 -39z m4652 -1181 c-3 -5 -12 -10 -18 -10 -7 0 -6 4 3 10 19
12 23 12 15 0z"/>
<path d="M19640 35700 c0 -5 5 -10 11 -10 5 0 7 5 4 10 -3 6 -8 10 -11 10 -2
0 -4 -4 -4 -10z"/>
<path d="M18480 33107 c17 -18 486 -265 492 -259 4 4 18 39 32 78 l23 70 -251
54 c-300 64 -302 64 -296 57z"/>
<path d="M27980 31370 c0 -5 5 -10 10 -10 6 0 10 5 10 10 0 6 -4 10 -10 10 -5
0 -10 -4 -10 -10z"/>
<path d="M29877 29103 c-64 -60 -93 -85 -297 -268 -91 -81 -174 -157 -185
-167 -11 -11 139 59 333 156 l353 177 -68 74 c-37 41 -72 75 -76 75 -4 0 -31
-21 -60 -47z"/>
<path d="M15978 27723 c7 -3 16 -2 19 1 4 3 -2 6 -13 5 -11 0 -14 -3 -6 -6z"/>
<path d="M16011 27716 c2 -2 91 -27 196 -56 l192 -52 43 33 c26 21 36 35 28
36 -33 6 -416 43 -439 43 -13 0 -22 -2 -20 -4z"/>
<path d="M6981 21149 c-2 -30 19 -421 49 -904 47 -753 51 -839 59 -1190 21
-891 -40 -1520 -203 -2095 -19 -68 -34 -125 -33 -126 1 -1 63 -27 137 -59 74
-31 200 -88 279 -126 79 -38 147 -69 151 -69 16 0 40 406 40 685 0 708 -85
1484 -315 2875 -30 179 -74 460 -100 625 -57 370 -62 404 -64 384z"/>
<path d="M28367 13278 c8 -142 -23 -132 245 -77 128 27 283 58 345 70 62 13
111 24 109 26 -2 2 -673 63 -698 63 -3 0 -4 -37 -1 -82z"/>
<path d="M32443 10732 c-165 -59 -311 -249 -378 -493 -38 -137 -45 -346 -16
-479 61 -280 251 -454 450 -411 81 17 140 50 213 119 107 102 177 228 225 410
36 134 38 355 5 479 -45 169 -138 305 -246 360 -68 35 -179 42 -253 15z"/>
<path d="M26205 9530 c-212 -67 -410 -291 -494 -558 -41 -130 -52 -200 -52
-334 -2 -241 64 -423 200 -558 324 -321 836 -57 989 510 22 84 26 115 26 265
1 147 -2 181 -22 253 -58 211 -179 358 -348 421 -73 28 -213 28 -299 1z"/>
<path d="M23489 9366 c-180 -38 -367 -216 -449 -426 -35 -90 -60 -218 -60
-315 0 -278 138 -494 354 -551 262 -70 567 162 667 508 30 106 38 304 14 401
-48 202 -184 351 -353 386 -65 13 -100 13 -173 -3z"/>
<path d="M18970 8268 c8 -9 684 -376 698 -380 9 -2 26 33 52 104 33 94 36 108
21 112 -9 3 -176 39 -371 81 -195 42 -366 79 -380 82 -14 3 -23 3 -20 1z"/>
<path d="M28177 7458 c-166 -24 -341 -205 -416 -433 -106 -320 -24 -648 187
-752 48 -24 70 -28 137 -28 69 0 89 4 148 32 126 60 253 209 311 364 40 109
56 198 56 317 0 177 -40 296 -131 396 -79 87 -175 121 -292 104z"/>
<path d="M30441 32432 c4 -27 -3 -52 -15 -52 -22 0 -30 19 -16 35 19 22 -4 18
-35 -6 -21 -18 -29 -19 -35 -9 -7 11 -16 11 -50 1 -22 -6 -38 -16 -35 -21 4
-6 2 -10 -4 -10 -5 0 -18 -3 -28 -6 -15 -5 -15 -4 -3 5 12 9 10 11 -12 11 -38
0 -58 -10 -51 -26 7 -19 -7 -18 -21 1 -8 11 -20 14 -45 9 -31 -7 -33 -8 -16
-21 11 -7 15 -13 10 -13 -5 0 -17 8 -27 17 -15 14 -21 14 -27 4 -5 -7 -12 -12
-17 -11 -21 3 -44 -9 -44 -24 0 -11 -9 -16 -26 -16 -19 0 -25 4 -20 15 4 10
-1 15 -15 15 -12 0 -17 -4 -14 -11 5 -7 -3 -10 -21 -8 -43 3 -74 -11 -74 -33
0 -14 -6 -19 -22 -16 -16 2 -22 9 -20 21 3 19 -2 21 -26 8 -16 -9 -66 -19
-127 -26 -16 -2 -37 -6 -45 -8 -8 -2 -28 -8 -45 -12 -16 -4 -33 -12 -36 -18
-4 -5 -35 -10 -70 -9 l-64 0 48 -10 c26 -6 47 -14 47 -19 0 -5 27 -9 60 -9
l60 0 0 -40 0 -40 -60 0 -60 0 0 34 c0 19 -5 38 -10 41 -6 3 -39 7 -74 8 -36
1 -59 5 -53 9 7 5 0 8 -15 8 -16 0 -28 -5 -28 -11 0 -7 -10 -9 -24 -5 -14 3
-28 1 -31 -4 -4 -6 -10 -8 -15 -5 -4 3 -13 -2 -20 -10 -7 -9 -29 -16 -49 -16
-94 -1 -187 -11 -196 -23 -14 -17 -43 -27 -50 -16 -3 4 1 11 7 13 9 4 8 6 -2
6 -9 1 -26 -6 -39 -15 -14 -10 -33 -14 -52 -10 -38 7 -59 -2 -59 -25 0 -15 -7
-19 -36 -19 -31 0 -35 2 -24 15 10 12 10 15 -1 14 -18 -1 -57 -17 -44 -18 6
-1 3 -6 -5 -11 -8 -5 -29 -7 -47 -4 -25 5 -34 2 -42 -15 -10 -18 -20 -20 -70
-18 -33 1 -58 4 -56 7 2 3 -22 1 -53 -5 -34 -6 -48 -11 -34 -13 19 -3 21 -6
11 -18 -9 -11 -7 -14 10 -14 16 0 21 -6 21 -25 0 -22 -3 -24 -37 -21 -41 4
-58 31 -26 39 17 4 17 5 -1 6 -12 1 -16 6 -12 16 4 10 -1 15 -15 15 -13 0 -18
-4 -13 -12 5 -8 -2 -9 -24 -5 -19 4 -34 2 -38 -5 -4 -6 -3 -8 4 -5 11 8 42 -1
42 -12 0 -3 -18 -7 -41 -8 -24 -2 -38 1 -34 7 3 6 -5 10 -19 10 -40 0 -35 -36
7 -46 47 -11 76 -11 70 0 -4 5 6 6 23 2 16 -4 40 -8 54 -10 14 -2 42 -7 63
-11 21 -4 37 -3 37 2 0 12 38 14 45 2 4 -5 19 -9 36 -9 16 0 29 -4 29 -9 0 -5
11 -11 25 -13 31 -6 32 0 3 12 -21 8 -21 9 -3 9 11 0 29 -6 39 -14 14 -11 23
-12 33 -4 9 8 13 8 13 1 0 -7 17 -9 45 -6 25 3 45 1 45 -4 0 -5 48 -12 108
-14 59 -3 115 -8 125 -12 15 -7 17 -2 17 38 l0 46 80 0 80 0 0 -34 c0 -28 -4
-35 -27 -41 l-28 -8 30 -13 c43 -19 105 -18 105 1 0 8 4 15 10 15 5 0 7 -7 3
-16 -5 -14 -1 -16 20 -12 15 3 27 1 27 -4 0 -5 5 -6 10 -3 6 3 10 1 10 -4 0
-6 15 -11 33 -11 17 0 46 -7 62 -16 18 -9 25 -10 18 -3 -7 7 -13 17 -13 21 0
12 36 -24 42 -41 2 -8 12 -15 22 -17 16 -2 15 1 -5 22 -12 13 -20 27 -16 30 4
4 9 -1 13 -10 3 -9 15 -16 25 -16 14 0 19 -6 18 -22 -4 -39 1 -58 12 -58 7 0
22 -11 35 -25 13 -14 21 -25 18 -25 -3 0 13 -18 37 -41 32 -31 44 -37 51 -27
7 10 8 10 7 -2 -3 -25 12 -49 27 -43 10 3 12 0 8 -10 -3 -10 2 -18 16 -22 11
-4 37 -22 55 -41 23 -23 35 -29 35 -19 0 8 7 15 15 15 18 0 20 -20 3 -20 -7
-1 -4 -8 8 -18 13 -11 20 -26 18 -40 -2 -12 1 -22 6 -22 6 0 10 5 10 10 0 6 9
10 21 10 12 0 19 -5 16 -12 -2 -7 4 -25 14 -39 10 -14 16 -29 14 -33 -3 -3 -2
-4 1 -2 5 4 24 -14 189 -184 44 -46 101 -101 127 -123 26 -22 45 -45 41 -51
-3 -6 -3 -8 1 -4 4 3 40 -30 79 -75 l72 -82 3 54 c2 33 -2 58 -9 65 -9 8 -10
7 -6 -6 4 -12 2 -15 -9 -11 -8 3 -21 0 -29 -7 -10 -8 -15 -9 -15 -1 0 17 61
45 70 32 3 -7 15 -9 26 -5 16 5 16 4 4 -5 -13 -9 -11 -11 7 -11 25 0 39 16 21
23 -8 3 -5 6 6 6 11 1 16 6 13 15 -16 40 -19 107 -6 123 21 24 24 532 3 571
-16 31 -19 76 -4 67 6 -4 8 -10 6 -14 -3 -4 -1 -21 4 -37 6 -20 7 -6 4 46 -3
41 -6 164 -7 272 -1 109 -5 198 -9 198 -5 0 -8 7 -8 15 0 8 -4 15 -10 15 -6 0
-10 40 -10 100 0 82 3 100 15 100 24 0 17 36 -10 48 -14 6 -24 8 -24 4z m-88
-61 c12 -1 -19 -31 -33 -31 -10 0 -40 24 -40 32 0 3 46 3 73 -1z m-2160 -428
c-7 -2 -19 -2 -25 0 -7 3 -2 5 12 5 14 0 19 -2 13 -5z m382 -13 c3 -6 -5 -10
-19 -10 -14 0 -28 5 -31 10 -3 6 5 10 19 10 14 0 28 -4 31 -10z m865 -59 c0
-6 -4 -13 -10 -16 -5 -3 -10 1 -10 9 0 9 5 16 10 16 6 0 10 -4 10 -9z m1047
-108 c-3 -10 -5 -4 -5 12 0 17 2 24 5 18 2 -7 2 -21 0 -30z m-957 9 c0 -5 -7
-9 -15 -9 -8 0 -12 4 -9 9 3 4 9 8 15 8 5 0 9 -4 9 -8z m70 -162 c0 -5 -2 -10
-4 -10 -3 0 -8 5 -11 10 -3 6 -1 10 4 10 6 0 11 -4 11 -10z m860 -625 c0 -43
-4 -75 -10 -75 -6 0 -10 32 -10 75 0 43 4 75 10 75 6 0 10 -32 10 -75z m-140
-55 c0 -5 -4 -10 -10 -10 -5 0 -10 5 -10 10 0 6 5 10 10 10 6 0 10 -4 10 -10z
m20 -30 c0 -5 -5 -10 -11 -10 -5 0 -7 5 -4 10 3 6 8 10 11 10 2 0 4 -4 4 -10z"/>
<path d="M29438 32233 c7 -3 16 -2 19 1 4 3 -2 6 -13 5 -11 0 -14 -3 -6 -6z"/>
<path d="M28021 31955 c-25 -8 -49 -11 -54 -8 -5 3 -19 1 -30 -5 -12 -6 -30
-13 -39 -16 -17 -5 -22 -46 -5 -46 4 0 5 -5 2 -11 -7 -11 97 39 105 51 10 14
49 30 74 30 14 0 26 5 26 10 0 13 -25 12 -79 -5z m-36 -35 c-3 -5 -11 -10 -16
-10 -6 0 -7 5 -4 10 3 6 11 10 16 10 6 0 7 -4 4 -10z"/>
<path d="M27828 31913 c7 -3 16 -2 19 1 4 3 -2 6 -13 5 -11 0 -14 -3 -6 -6z"/>
<path d="M27847 31849 c7 -7 15 -10 18 -7 3 3 -2 9 -12 12 -14 6 -15 5 -6 -5z"/>
<path d="M28970 31850 c0 -5 9 -10 21 -10 11 0 17 5 14 10 -3 6 -13 10 -21 10
-8 0 -14 -4 -14 -10z"/>
<path d="M25585 31480 c-3 -5 -1 -10 4 -10 6 0 11 5 11 10 0 6 -2 10 -4 10 -3
0 -8 -4 -11 -10z"/>
<path d="M30523 30970 c0 -25 2 -35 4 -22 2 12 2 32 0 45 -2 12 -4 2 -4 -23z"/>
<path d="M19520 26309 c-196 -245 -329 -499 -413 -789 -51 -172 -62 -240 -61
-375 0 -115 3 -138 26 -197 53 -138 148 -259 327 -416 48 -42 86 -79 84 -81
-2 -3 -34 -16 -71 -31 l-67 -26 -65 83 c-36 45 -92 113 -125 151 -91 104 -103
121 -140 197 -40 82 -61 156 -76 274 -5 47 -12 87 -14 89 -2 2 -12 -9 -22 -24
-15 -24 -18 -50 -18 -179 0 -154 5 -179 48 -275 38 -81 76 -134 153 -212 l77
-76 -59 -12 c-130 -27 -445 -166 -569 -251 -89 -61 -145 -130 -145 -180 0 -59
105 -105 220 -97 98 8 201 63 480 260 113 79 157 99 268 123 66 14 84 15 97 5
12 -10 15 -10 15 3 0 10 14 18 40 22 22 4 51 16 66 27 l26 21 25 -25 25 -25
-223 -166 c-122 -92 -225 -168 -229 -169 -4 -2 -15 -55 -24 -118 -10 -63 -35
-236 -57 -385 -42 -284 -66 -450 -75 -525 -5 -43 -3 -49 53 -122 32 -42 92
-122 133 -178 80 -107 100 -133 170 -226 24 -32 60 -82 80 -110 44 -64 215
-292 239 -319 9 -11 34 -45 54 -76 20 -31 46 -64 57 -74 11 -10 20 -22 20 -27
0 -5 37 -56 83 -113 82 -104 113 -146 175 -233 18 -26 37 -46 42 -45 6 2 10
-4 10 -12 0 -17 49 -85 129 -180 28 -33 51 -66 51 -72 0 -7 5 -13 10 -13 6 0
10 -7 10 -15 0 -8 7 -15 15 -15 8 0 14 -3 14 -7 -3 -21 2 -33 15 -33 8 0 18
-5 22 -12 5 -7 3 -8 -5 -3 -11 6 53 -93 68 -105 3 -3 19 -24 35 -48 19 -28 34
-41 44 -37 10 3 12 0 9 -10 -4 -8 0 -20 6 -27 7 -7 16 -21 20 -30 3 -10 11
-18 17 -18 6 0 15 -12 21 -27 8 -22 12 -25 20 -13 9 12 10 11 6 -6 -3 -16 10
-37 49 -79 29 -32 50 -63 47 -68 -4 -6 2 -8 15 -5 15 4 19 2 15 -8 -3 -8 -10
-11 -17 -7 -6 4 8 -14 32 -40 23 -26 42 -52 42 -58 0 -8 5 -7 17 2 15 13 15
12 4 -8 -10 -19 -8 -24 10 -35 11 -7 31 -33 44 -58 13 -25 35 -56 50 -70 15
-14 44 -50 63 -80 20 -30 60 -83 89 -118 29 -34 53 -68 53 -75 0 -8 4 -7 10 3
9 13 10 13 11 0 1 -8 2 -20 3 -27 1 -13 41 -53 53 -53 4 0 2 5 -5 12 -18 18
-15 28 8 28 11 0 20 6 20 13 0 8 4 7 10 -3 8 -12 10 -11 10 8 0 21 4 22 70 22
l70 0 0 40 0 40 79 0 79 0 4 -40 c2 -28 0 -40 -9 -40 -7 0 -13 -4 -13 -10 0
-16 32 -12 52 6 14 13 21 14 32 5 11 -10 17 -8 30 10 18 27 12 42 -15 34 -15
-5 -19 -1 -19 15 0 22 28 25 42 5 5 -6 8 -5 8 3 0 6 7 12 15 12 8 0 15 -4 15
-10 0 -5 7 -10 16 -10 8 0 12 5 9 10 -3 6 1 10 10 10 9 0 24 13 33 30 12 21
22 28 35 24 9 -3 17 0 17 6 0 6 4 9 9 6 5 -3 14 1 21 9 7 8 18 15 25 15 7 0
18 7 25 15 11 13 10 15 -6 9 -18 -5 -18 -5 -1 6 9 6 21 8 27 5 5 -3 14 4 20
15 6 11 17 20 24 20 8 0 19 7 26 15 11 13 10 15 -1 10 -17 -6 -46 11 -36 22 5
4 12 1 17 -7 7 -12 12 -12 22 -2 6 6 20 12 30 12 10 0 21 7 24 15 4 8 14 15
24 15 10 0 24 7 31 17 8 9 28 25 44 36 17 10 22 16 12 13 -10 -3 -16 -2 -12 3
3 5 19 12 35 16 16 4 33 11 36 17 5 7 2 8 -6 3 -9 -5 -11 -4 -6 3 4 7 15 12
24 12 26 1 52 25 52 49 0 13 4 19 10 16 6 -4 8 -11 5 -16 -3 -5 1 -6 9 -3 9 3
16 13 16 21 0 8 4 12 9 9 10 -6 33 17 30 30 -1 5 -1 16 0 24 1 11 4 11 13 2
13 -13 39 -16 37 -4 -1 4 -1 16 0 27 1 15 3 17 10 6 5 -7 14 -10 20 -7 6 4 9
12 6 17 -4 5 -1 9 4 9 6 0 11 -6 11 -12 1 -7 7 -2 15 12 8 14 14 22 15 17 0
-11 80 44 80 55 0 5 5 6 12 2 8 -5 9 -2 5 10 -5 13 -3 17 7 13 8 -3 22 4 33
15 10 12 12 18 4 13 -10 -5 -12 -4 -7 4 4 6 12 9 17 5 6 -3 22 7 36 23 14 15
22 22 19 16 -5 -9 -2 -11 9 -7 9 4 21 18 26 31 5 15 15 23 26 21 13 -2 17 3
15 15 -3 15 1 17 17 12 12 -4 21 -2 21 4 0 6 11 13 25 17 14 3 23 10 20 14 -3
5 1 11 7 13 8 3 6 6 -4 6 -10 1 -18 6 -18 12 0 7 10 9 25 7 14 -3 30 1 36 8 6
7 17 10 25 7 8 -3 14 0 14 6 0 6 -4 11 -10 11 -5 0 -10 7 -10 15 0 13 3 13 19
3 16 -10 23 -9 39 5 10 9 24 17 30 17 6 0 14 4 17 10 3 6 -2 8 -12 5 -10 -3
-5 1 10 8 16 8 33 20 38 28 4 8 13 15 19 15 21 3 22 4 10 19 -18 22 -6 29 20
13 18 -10 24 -10 27 0 3 6 11 12 18 12 7 0 20 11 29 25 9 14 22 25 29 25 7 0
27 13 44 29 18 16 34 26 37 23 3 -3 6 3 6 12 0 13 5 16 18 12 16 -6 16 -5 0 8
-25 19 -22 26 10 22 38 -5 115 44 102 64 -8 12 -10 11 -10 -5 -1 -19 -1 -19
-11 -2 -6 10 -8 21 -5 24 10 10 -24 64 -37 57 -7 -4 -9 -4 -5 1 12 13 -11 45
-28 38 -12 -4 -15 -1 -12 14 1 11 -8 33 -22 50 -14 17 -32 41 -40 53 -8 13
-24 33 -35 44 -11 12 -27 33 -34 48 -8 15 -18 25 -23 22 -4 -3 -8 2 -8 10 0 9
-3 16 -8 16 -4 0 -13 14 -20 30 -8 18 -21 30 -33 30 -12 0 -16 5 -13 15 4 8 1
15 -5 15 -6 0 -10 4 -8 9 3 16 -36 71 -56 77 -9 3 -15 10 -11 15 3 6 0 17 -7
25 -10 12 -14 12 -21 2 -6 -9 -7 -6 -3 8 3 14 -1 26 -12 35 -14 12 -16 12 -8
0 6 -10 4 -12 -4 -7 -7 5 -10 14 -8 21 3 6 -5 23 -17 36 -12 13 -25 32 -29 42
-3 9 -13 17 -22 17 -8 0 -15 4 -15 9 0 15 -62 111 -71 111 -5 0 -9 5 -9 12 0
6 -17 32 -38 57 -21 25 -54 69 -72 96 -19 28 -38 55 -42 60 -5 6 -56 76 -116
156 -120 164 -575 777 -757 1023 -117 158 -239 323 -499 673 -110 149 -131
173 -159 178 -18 3 -246 37 -507 75 -261 38 -487 72 -501 74 -20 4 -48 -12
-133 -75 l-107 -80 -88 84 c-48 45 -140 123 -204 171 -64 48 -150 123 -191
166 -259 276 -285 653 -77 1083 50 102 163 284 225 361 35 44 50 66 43 66 -2
0 -37 -41 -77 -91z m-250 -1956 c0 -5 -24 -22 -53 -40 -29 -17 -61 -39 -72
-48 -46 -37 -244 -160 -300 -186 -68 -32 -144 -49 -221 -49 -55 0 -104 13
-104 28 0 21 239 158 443 255 70 33 308 64 307 40z m820 -101 c105 -44 195
-146 225 -256 22 -81 16 -183 -15 -253 -21 -49 -56 -93 -73 -93 -5 0 -27 -15
-50 -34 -82 -66 -170 -92 -275 -83 -65 7 -176 50 -216 85 -15 13 -17 13 -11 2
8 -13 7 -13 -10 0 -61 47 -98 115 -115 208 -21 117 20 243 108 335 61 63 76
61 19 -3 -54 -60 -90 -130 -81 -155 5 -11 3 -16 -3 -12 -5 3 -10 0 -10 -8 0
-8 10 -17 21 -20 26 -8 69 -28 76 -36 9 -11 49 -29 64 -29 11 0 16 9 16 28 0
15 10 42 21 61 18 30 22 33 30 18 6 -9 11 -49 12 -89 l2 -73 77 77 c43 43 84
91 93 108 9 16 18 30 21 30 11 0 64 -34 64 -42 0 -20 30 7 35 32 5 22 10 27
28 23 13 -3 18 -1 11 4 -6 4 -9 17 -7 28 3 11 5 28 6 37 1 13 7 16 20 12 16
-5 17 -3 8 15 -14 26 -104 79 -148 87 -18 3 -33 10 -33 15 0 11 39 2 90 -19z
m1048 -873 c104 -52 172 -157 172 -263 -1 -76 -17 -122 -66 -186 -32 -43 -142
-140 -157 -140 -7 0 -107 139 -107 149 0 5 20 25 44 45 53 43 90 112 80 150
-8 35 -59 76 -93 76 -33 0 -86 -33 -114 -72 -17 -22 -21 -56 -33 -235 -17
-269 -26 -299 -129 -400 -94 -92 -179 -134 -281 -141 -56 -3 -80 0 -115 15
-91 40 -165 128 -194 227 -27 91 -7 174 63 270 32 44 156 156 173 156 8 0 109
-134 109 -145 0 -5 -27 -33 -60 -63 -70 -62 -90 -96 -90 -148 0 -48 53 -104
99 -104 70 0 151 66 170 138 6 20 13 100 16 177 4 77 11 165 17 195 34 179
204 328 374 330 48 0 73 -6 122 -31z m550 -719 c39 -55 72 -104 72 -108 0 -4
-28 -36 -62 -72 -33 -36 -120 -127 -192 -204 -72 -76 -130 -143 -128 -147 1
-5 -3 -8 -9 -6 -6 1 -16 -7 -22 -18 -7 -11 -20 -26 -30 -33 -9 -7 -15 -18 -12
-23 4 -5 1 -9 -6 -9 -15 0 -118 -101 -119 -117 0 -6 -9 -15 -20 -18 -11 -3
-20 -10 -20 -14 0 -7 -69 -81 -196 -211 -13 -14 -24 -31 -24 -38 0 -7 -4 -11
-9 -7 -5 3 -12 1 -16 -5 -4 -6 -15 -4 -31 6 -13 9 -23 19 -20 21 3 3 1 10 -5
17 -38 45 -79 107 -79 119 0 13 145 167 157 167 10 0 63 59 63 70 0 6 -11 22
-25 36 -13 13 -24 25 -22 27 4 4 -66 97 -74 97 -4 0 -14 -6 -21 -12 -7 -7 -18
-14 -23 -15 -6 -1 -63 -27 -128 -58 -66 -32 -123 -53 -127 -49 -41 43 -118
160 -111 167 7 7 265 129 651 307 58 27 191 89 295 138 105 50 197 91 205 91
8 0 48 -45 88 -99z m317 -427 c57 -76 57 -77 37 -94 -12 -9 -18 -20 -14 -24 4
-3 2 -5 -3 -3 -15 5 -127 -77 -118 -86 5 -4 3 -6 -3 -4 -11 3 -138 -83 -189
-127 -16 -15 -53 -42 -81 -60 -29 -18 -55 -38 -59 -45 -4 -6 -24 -22 -46 -36
-24 -15 -37 -29 -33 -36 5 -7 2 -9 -9 -5 -9 3 -27 -5 -44 -21 -15 -15 -31 -27
-35 -27 -3 0 -22 -14 -42 -31 -19 -17 -37 -30 -39 -28 -2 2 -20 -12 -41 -31
-20 -18 -39 -34 -42 -34 -3 0 -11 -7 -19 -15 -13 -12 -12 -15 2 -20 9 -4 13
-9 10 -13 -4 -3 3 -14 14 -24 11 -9 20 -21 21 -26 0 -7 29 -49 53 -76 6 -7 21
-28 34 -47 13 -19 35 -46 50 -59 14 -13 20 -20 14 -17 -8 5 -13 1 -13 -9 0 -9
-4 -13 -10 -10 -5 3 -15 -3 -22 -15 -7 -11 -18 -20 -25 -20 -7 0 -23 -11 -36
-24 -28 -28 -82 -58 -90 -50 -3 3 -4 11 -1 18 3 7 -6 24 -20 39 -14 15 -22 27
-19 27 3 0 -6 12 -21 26 -14 15 -26 33 -26 41 0 8 -4 11 -10 8 -5 -3 -10 -1
-10 6 0 11 -65 105 -86 124 -6 6 -20 26 -32 45 -12 19 -31 46 -44 60 -13 14
-24 31 -26 38 -4 19 17 52 32 52 7 0 25 11 40 25 15 13 36 29 47 35 11 6 17
15 14 20 -4 6 1 7 11 3 13 -5 15 -3 9 7 -5 8 -4 11 2 7 9 -6 76 39 93 61 3 4
25 20 49 35 107 70 271 199 265 209 -4 7 -2 8 5 4 15 -10 43 13 34 27 -3 6 -1
7 5 3 12 -7 194 120 220 152 6 9 12 13 12 9 0 -4 35 20 78 53 42 32 82 59 88
59 7 1 37 -34 69 -76z m323 -422 c-3 -16 15 -40 26 -34 6 3 8 3 4 -2 -10 -11
11 -47 23 -40 5 4 8 3 7 -2 -4 -14 26 -53 42 -53 11 0 12 -2 2 -8 -9 -6 -4
-16 18 -37 16 -16 30 -34 30 -41 0 -6 7 -14 15 -18 8 -3 15 -11 15 -18 0 -15
38 -52 62 -61 10 -3 15 -13 12 -24 -3 -10 3 -27 13 -38 11 -11 22 -28 26 -38
4 -10 12 -15 18 -12 7 5 9 -3 7 -21 -2 -18 -8 -28 -16 -26 -8 1 -11 -2 -7 -8
3 -5 0 -10 -7 -10 -9 0 -9 -3 2 -10 11 -8 8 -9 -12 -4 -23 5 -29 2 -39 -20 -7
-14 -16 -23 -22 -19 -5 3 -13 0 -17 -7 -14 -22 -48 -22 -60 0 -6 12 -16 18
-23 14 -7 -4 -9 -4 -5 1 9 10 -10 47 -21 40 -5 -3 -12 7 -15 20 -4 16 -11 23
-18 19 -7 -4 -8 -3 -4 5 9 14 -72 114 -85 105 -5 -3 -6 2 -2 12 5 13 2 15 -17
9 -16 -5 -20 -4 -15 5 12 19 -27 -4 -64 -39 -18 -16 -33 -30 -34 -30 -14 1
-35 -16 -30 -24 3 -6 1 -7 -5 -3 -6 4 -19 -2 -29 -14 -10 -11 -23 -20 -30 -20
-15 0 -17 -16 -3 -25 6 -3 10 -1 10 5 0 6 5 8 10 5 6 -4 8 -15 5 -26 -4 -12
-2 -19 6 -19 7 0 9 -3 6 -6 -4 -4 3 -15 15 -25 11 -11 17 -19 12 -19 -5 0 0
-7 10 -15 11 -8 16 -15 11 -15 -4 0 1 -8 11 -17 11 -10 32 -37 47 -61 27 -41
27 -45 12 -68 -8 -13 -22 -24 -30 -24 -7 0 -20 -8 -27 -19 -7 -10 -16 -19 -20
-20 -5 0 -8 -4 -7 -7 1 -12 -22 -21 -54 -20 -25 1 -35 8 -51 38 -10 21 -22 35
-26 33 -4 -2 -13 11 -20 30 -7 19 -17 32 -22 29 -4 -3 -8 2 -8 10 0 9 -4 16
-10 16 -5 0 -10 7 -10 16 0 8 -4 12 -10 9 -5 -3 -10 3 -10 14 0 17 -5 19 -36
15 -45 -5 -57 -12 -50 -29 3 -9 -2 -12 -14 -10 -19 4 -130 -70 -130 -87 0 -4
-7 -8 -16 -8 -8 0 -13 -4 -9 -9 3 -5 -11 -15 -30 -21 -19 -6 -35 -18 -35 -25
0 -7 15 -31 34 -54 19 -22 37 -46 40 -53 5 -11 7 -11 12 0 3 6 10 9 15 6 6 -4
6 -11 -1 -19 -9 -11 -5 -21 16 -44 15 -17 30 -29 34 -26 3 2 6 -6 6 -18 -1
-16 4 -21 18 -19 10 2 15 -1 12 -7 -4 -6 -3 -19 2 -28 11 -22 5 -43 -13 -43
-20 0 -39 -27 -23 -34 7 -3 3 -4 -9 -2 -18 3 -23 -1 -23 -16 0 -16 -3 -18 -14
-9 -10 8 -16 8 -25 -2 -6 -8 -8 -17 -4 -20 6 -6 -20 -11 -40 -8 -5 1 -6 -3 -3
-8 3 -5 -1 -14 -9 -21 -12 -10 -15 -7 -20 12 -4 13 -5 28 -3 34 4 14 -28 55
-37 46 -4 -4 -5 1 -2 10 6 18 -15 42 -28 30 -5 -4 -5 -1 -1 6 4 6 2 12 -4 12
-6 0 -9 4 -6 9 3 5 -7 21 -21 37 -15 16 -27 32 -25 36 1 4 -7 12 -18 18 -11 6
-20 17 -20 25 0 8 -4 15 -8 15 -5 0 -15 11 -22 25 -10 19 -16 22 -22 13 -6 -9
-8 -7 -6 7 3 23 -35 78 -47 67 -3 -4 -6 -2 -4 3 1 6 -4 23 -11 38 -12 25 -15
26 -20 11 -6 -16 -7 -16 -12 4 -3 12 -3 21 1 20 22 -2 41 4 36 12 -3 6 0 10 7
10 7 0 39 19 71 41 44 31 55 44 45 51 -9 6 -8 8 7 6 18 -2 70 30 116 72 33 31
60 50 68 50 6 0 13 9 16 20 4 11 11 18 16 15 10 -7 129 74 129 87 0 4 7 8 16
8 9 0 18 9 21 20 3 11 9 17 14 14 9 -5 81 45 104 71 6 6 20 17 33 24 12 7 20
17 16 23 -4 7 -3 8 4 4 7 -4 12 -2 12 4 0 6 5 8 10 5 6 -3 10 2 10 12 0 13 3
14 8 5 6 -9 18 -3 45 23 20 20 37 32 37 28 0 -4 4 -3 8 2 4 6 24 21 44 35 21
14 38 28 38 33 0 4 5 7 12 7 12 0 68 59 68 71 0 3 7 6 14 6 8 0 14 -3 14 -6z
m1026 -299 c2 -4 -5 -9 -17 -9 -17 -2 -19 0 -7 7 18 12 18 12 24 2z m74 -175
c13 5 14 3 5 -7 -13 -14 -33 -5 -32 13 0 9 2 9 5 0 3 -7 13 -9 22 -6z m-768
-581 c0 -11 -19 -15 -25 -6 -3 5 1 10 9 10 9 0 16 -2 16 -4z m-50 -16 c0 -5
-5 -10 -11 -10 -5 0 -7 5 -4 10 3 6 8 10 11 10 2 0 4 -4 4 -10z m-15 -30 c3
-5 -1 -10 -9 -10 -9 0 -16 5 -16 10 0 6 4 10 9 10 6 0 13 -4 16 -10z m-92 -54
c4 -10 0 -12 -14 -9 -22 6 -26 23 -5 23 8 0 16 -6 19 -14z m-212 -179 c-10 -9
-11 -8 -5 6 3 10 9 15 12 12 3 -3 0 -11 -7 -18z m-147 -109 c-3 -4 -9 -8 -15
-8 -5 0 -9 4 -9 8 0 5 7 9 15 9 8 0 12 -4 9 -9z"/>
<path d="M21445 22502 c-27 -16 -126 -68 -220 -116 -93 -48 -173 -91 -177 -94
-7 -7 71 -121 83 -122 4 0 89 81 190 180 101 98 182 179 179 179 -3 0 -27 -12
-55 -27z"/>
<path d="M21874 21216 c-19 -15 -19 -15 0 -12 11 2 22 8 24 14 5 16 0 15 -24
-2z"/>
<path d="M22405 20570 c3 -5 8 -10 11 -10 2 0 4 5 4 10 0 6 -5 10 -11 10 -5 0
-7 -4 -4 -10z"/>
<path d="M21640 19999 c0 -5 5 -7 10 -4 6 3 10 8 10 11 0 2 -4 4 -10 4 -5 0
-10 -5 -10 -11z"/>
<path d="M21550 19974 c0 -17 22 -14 28 4 2 7 -3 12 -12 12 -9 0 -16 -7 -16
-16z"/>
<path d="M21590 19975 c0 -8 2 -15 4 -15 2 0 6 7 10 15 3 8 1 15 -4 15 -6 0
-10 -7 -10 -15z"/>
<path d="M21462 19953 c-6 -3 -9 -9 -6 -15 3 -5 -3 -12 -15 -15 -24 -6 -29
-23 -6 -23 7 0 18 -7 22 -15 8 -13 11 -13 28 0 20 14 20 14 -2 15 -13 0 -23 5
-23 10 0 6 9 10 19 10 11 0 22 4 26 9 7 12 -25 30 -43 24z"/>
<path d="M21561 19951 c-8 -6 -9 -11 -3 -15 6 -3 14 -1 17 5 9 14 2 20 -14 10z"/>
<path d="M21520 19941 c0 -6 6 -11 13 -11 8 0 7 -4 -3 -10 -9 -6 -10 -10 -3
-10 19 0 24 17 8 30 -10 9 -15 9 -15 1z"/>
<path d="M21280 19929 c0 -5 -4 -7 -10 -4 -15 9 -12 -11 4 -24 11 -9 14 -6 14
14 0 14 -2 25 -4 25 -2 0 -4 -5 -4 -11z"/>
<path d="M21294 19855 c11 -8 22 -12 25 -9 6 6 -19 24 -34 24 -5 -1 -1 -7 9
-15z"/>
<path d="M21380 19860 c0 -12 24 -40 35 -40 4 0 5 6 2 14 -4 10 0 12 15 8 15
-3 19 -1 16 9 -6 17 -68 25 -68 9z"/>
<path d="M21340 19800 c0 -5 5 -10 10 -10 6 0 10 5 10 10 0 6 -4 10 -10 10 -5
0 -10 -4 -10 -10z"/>
<path d="M30404 12592 c-34 -17 -80 -47 -103 -67 l-41 -38 6 -96 c7 -122 10
-131 31 -100 74 111 179 164 275 139 60 -16 138 -98 167 -174 47 -125 36 -292
-25 -416 -57 -114 -133 -175 -232 -186 -40 -5 -56 -1 -106 25 l-59 32 6 -83
c4 -46 7 -95 7 -110 0 -21 7 -29 36 -38 55 -18 170 -8 229 20 178 85 318 379
301 635 -10 166 -60 297 -147 386 -65 67 -118 91 -209 96 -67 4 -81 1 -136
-25z"/>
<path d="M30444 12282 c-78 -49 -126 -146 -127 -255 -1 -91 18 -145 68 -194
37 -38 48 -43 86 -43 59 0 107 27 146 84 41 60 56 113 54 196 -2 91 -17 136
-60 182 -32 35 -45 41 -87 45 -37 3 -57 -1 -80 -15z"/>
<path d="M30394 10650 c-169 -34 -319 -211 -375 -446 -27 -115 -23 -316 9
-404 47 -134 109 -212 200 -257 216 -106 477 104 546 439 33 157 14 354 -45
470 -51 102 -142 180 -222 193 -23 4 -49 8 -57 10 -8 1 -33 -1 -56 -5z"/>
</g>
</svg>
